<?xml version="1.0" encoding="UTF-8"?>
<svg xmlns="http://www.w3.org/2000/svg" xmlns:xlink="http://www.w3.org/1999/xlink" viewBox="0 0 480 480" width="480px" height="480px">
<g id="surface135427564">
<path style=" stroke:none;fill-rule:nonzero;fill:rgb(100%,100%,100%);fill-opacity:1;" d="M 214.199219 96 C 241.425781 115.125 259.199219 146.699219 259.199219 182.398438 L 259.199219 345.601562 L 451.199219 345.601562 C 456.523438 345.601562 460.800781 341.324219 460.800781 336 L 460.800781 182.398438 C 460.800781 134.773438 422.0625 96 374.398438 96 Z M 158.398438 96.300781 C 112.988281 98.8125 76.800781 136.386719 76.800781 182.398438 L 76.800781 336 C 76.800781 341.324219 81.113281 345.601562 86.398438 345.601562 L 240 345.601562 L 240 182.398438 C 240 136.386719 203.8125 98.8125 158.398438 96.300781 Z M 316.800781 163.199219 C 323.886719 163.199219 329.960938 167.101562 333.300781 172.800781 L 422.398438 172.800781 L 422.398438 230.398438 L 384 230.398438 L 384 192 L 333.300781 192 C 329.960938 197.699219 323.886719 201.601562 316.800781 201.601562 C 306.1875 201.601562 297.601562 193.011719 297.601562 182.398438 C 297.601562 171.789062 306.1875 163.199219 316.800781 163.199219 Z M 134.398438 192 L 182.398438 192 C 187.6875 192 192 196.3125 192 201.601562 C 192 206.886719 187.6875 211.199219 182.398438 211.199219 L 134.398438 211.199219 C 129.113281 211.199219 124.800781 206.886719 124.800781 201.601562 C 124.800781 196.3125 129.113281 192 134.398438 192 Z M 268.800781 364.800781 L 268.800781 441.601562 L 326.398438 441.601562 L 326.398438 364.800781 Z M 268.800781 364.800781 "/>
</g>
</svg>
