<svg xmlns="http://www.w3.org/2000/svg" viewBox="0 0 500 500"><g id="freepik--background-simple--inject-27"><path d="M383.16,133.14a212.8,212.8,0,0,0-10.85-19C326.19,43.85,202.7,5.57,141.51,78.25,126.92,95.57,121.84,116.5,112,136.37c-22.32,45.18-64,72.2-90.2,114-20.27,32.43-17.57,74-6.26,109.06,12.29,38.1,33.92,64.71,68.52,84.94,38.79,22.67,80.27,16.38,122.2,8.49,18.85-3.55,38.29-7.17,57.57-5.82,24.14,1.7,48,8.53,71.92,11.85,24.9,3.45,50.74,4.27,74.73-3.26,76.83-24.09,95-137,63.44-201.73-11.18-22.9-30.14-40.56-47.74-58.49C407.2,176.1,395.56,157.16,383.16,133.14Z" style="fill:#A155B5"></path><path d="M383.16,133.14a212.8,212.8,0,0,0-10.85-19C326.19,43.85,202.7,5.57,141.51,78.25,126.92,95.57,121.84,116.5,112,136.37c-22.32,45.18-64,72.2-90.2,114-20.27,32.43-17.57,74-6.26,109.06,12.29,38.1,33.92,64.71,68.52,84.94,38.79,22.67,80.27,16.38,122.2,8.49,18.85-3.55,38.29-7.17,57.57-5.82,24.14,1.7,48,8.53,71.92,11.85,24.9,3.45,50.74,4.27,74.73-3.26,76.83-24.09,95-137,63.44-201.73-11.18-22.9-30.14-40.56-47.74-58.49C407.2,176.1,395.56,157.16,383.16,133.14Z" style="fill:#fff;opacity:0.7000000000000001"></path></g><g id="freepik--Floor--inject-27"><path d="M472.87,449.78H20.09a.5.5,0,1,1,0-1H472.87a.5.5,0,0,1,0,1Z" style="fill:#263238"></path></g><g id="freepik--arrows-2--inject-27"><path d="M186.9,161.77a9.75,9.75,0,0,1-7.12-16.4L263.69,55.7,207.1,59.65,206,44.26l.5,0,86.91-6-.28,87.61-15.43,0L277.93,69,194,158.69A9.77,9.77,0,0,1,186.9,161.77ZM266.16,54.53l-85.65,91.53A8.74,8.74,0,0,0,193.28,158l85.66-91.55-.2,58.31,13.43,0,.28-85.54L207.1,45.19l.93,13.4Z" style="fill:#263238"></path><path d="M405.38,318a5.21,5.21,0,0,1-3.81-8.78L444,263.93l-28.52,2-.57-8.35L460,254.43l-.15,45.23-8.36,0,.1-28.59-42.42,45.33A5.23,5.23,0,0,1,405.38,318Zm41.06-55.28L402.3,309.93a4.23,4.23,0,0,0-1.14,3,4.22,4.22,0,0,0,7.3,2.74l44.15-47.18-.1,30.14h6.37L459,255.5l-43.05,3,.43,6.35Z" style="fill:#263238"></path><path d="M123.47,147.14l-16.35-15.21,31.14-32.65-12.94-4.69,56-25.14-21,57.62-5.62-12.59Zm-14.93-15.25,14.89,13.84,31.49-33,5.21,11.69,19.39-53.07L128,94.49,140,98.86Z" style="fill:#263238"></path><path d="M87.3,439.17,71,424l31.14-32.65-12.94-4.69,56-25.14L124.06,419.1l-5.62-12.59ZM72.38,423.92l14.88,13.84,31.49-33,5.22,11.7,19.38-53.08L91.81,386.52l12.06,4.37Z" style="fill:#263238"></path><path d="M133.17,272.26H34.33v-13h98.84a61.46,61.46,0,0,0,44.94-19.62l28-30.21L177.67,224l-4.08-7.93.45-.23,66.74-34.24-29.31,69.59-8.22-3.46,12.42-29.49-28,30.21A74.54,74.54,0,0,1,133.17,272.26Zm-97.84-1h97.84a73.5,73.5,0,0,0,53.74-23.46l31.88-34.37-14.23,33.79,6.38,2.69,27.85-66.13-63.85,32.75,3.16,6.16L210.73,206l-31.88,34.37a62.49,62.49,0,0,1-45.68,19.94H35.33Z" style="fill:#263238"></path></g><g id="freepik--Character--inject-27"><polygon points="359.05 197.49 354 194.34 347.36 201.07 352.15 206.68 359.05 197.49" style="fill:#fff"></polygon><path d="M352.15,207.18a.53.53,0,0,1-.38-.18L347,201.4a.51.51,0,0,1,0-.68l6.65-6.73a.51.51,0,0,1,.62-.07l5.05,3.15a.48.48,0,0,1,.22.33.45.45,0,0,1-.09.39l-6.9,9.19a.51.51,0,0,1-.38.2ZM348,201.09l4.09,4.79,6.19-8.25L354.08,195Z" style="fill:#263238"></path><path d="M382.13,443s7.84,6.67,9.3,7.7,12,5.52,12,5.52a2.15,2.15,0,0,1-.83,2.4c-1.35,1.16-14.15,2.25-17.93,2s-9.57-3.45-10.54-4-5.28-5.54-5.28-5.54l-2.1,1.82-9.48-4.71s.82-5.68,2.43-8.11a27.69,27.69,0,0,1,5.2-5.17Z" style="fill:#263238"></path><path d="M386,461.15c-.55,0-1,0-1.37,0-4.29-.33-10.7-4.07-10.76-4.1a52.09,52.09,0,0,1-5.08-5.27l-1.73,1.5a.5.5,0,0,1-.55.07l-9.47-4.71a.5.5,0,0,1-.27-.52c0-.24.85-5.82,2.5-8.32a27.78,27.78,0,0,1,5.31-5.29.49.49,0,0,1,.52-.06l17.2,8.17a.26.26,0,0,1,.11.07c.08.06,7.85,6.67,9.27,7.67,1.12.78,8.29,3.92,11.93,5.47a.53.53,0,0,1,.26.27,2.58,2.58,0,0,1-1,3C401.52,460.26,390.69,461.15,386,461.15Zm-17.16-10.61a.48.48,0,0,1,.38.17,59.22,59.22,0,0,0,5.16,5.44c1.29.77,6.8,3.69,10.32,4,4,.32,16.43-.87,17.56-1.84a1.74,1.74,0,0,0,.74-1.65c-1.56-.67-10.51-4.51-11.89-5.49s-8.56-7.06-9.3-7.68l-16.86-8a26.12,26.12,0,0,0-4.84,4.86c-1.3,2-2.09,6.29-2.3,7.55l8.85,4.41,1.85-1.61A.52.52,0,0,1,368.88,450.54Z" style="fill:#263238"></path><path d="M241.19,447l-5.65-1.22s-8.73-5.53-10.48-6.07-4.23.05-5.94,3.58l-2.38,5.91,1.49,1.65s-4.28,2.09-5,3.85-5.63,6.7-6.73,13.18.88,5.13,1.64,4.78,12.74-8.77,14.57-10,13.93-3.49,13.93-3.49S238.71,448.72,241.19,447Z" style="fill:#263238"></path><path d="M207.12,473.47a1.16,1.16,0,0,1-.71-.23c-.54-.4-1.07-1.39-.38-5.49.8-4.75,3.56-8.6,5.38-11.15a13.72,13.72,0,0,0,1.37-2.12c.61-1.53,3.38-3.14,4.65-3.81l-1.06-1.17a.52.52,0,0,1-.09-.52l2.38-5.92c1.83-3.79,4.58-4.48,6.55-3.87,1.72.54,9.61,5.5,10.52,6.08l5.56,1.2a.49.49,0,0,1,.39.39.51.51,0,0,1-.2.51c-1.9,1.35-3.77,9-4.33,11.89a.5.5,0,0,1-.39.4c-3.35.64-12.33,2.49-13.76,3.42-.72.47-3.1,2.12-5.61,3.86-5.14,3.56-8.55,5.92-9,6.13l-.14.07A2.6,2.6,0,0,1,207.12,473.47Zm10.2-24.41,1.29,1.42a.51.51,0,0,1,.12.43.47.47,0,0,1-.28.35c-1.14.56-4.22,2.29-4.74,3.59a13.75,13.75,0,0,1-1.49,2.33c-1.77,2.48-4.44,6.22-5.2,10.74-.65,3.83-.12,4.44,0,4.52s.56-.09.78-.2l.17-.08c.45-.21,5.31-3.58,8.86-6,2.63-1.83,4.91-3.4,5.63-3.87,1.74-1.14,11.57-3.08,13.79-3.51.37-1.81,1.91-8.85,3.95-11.48l-4.75-1a.49.49,0,0,1-.17-.06c-2.41-1.53-9-5.59-10.36-6-.76-.24-3.4-.69-5.34,3.32Z" style="fill:#263238"></path><path d="M289.79,355.75s.67,17.7,4.23,41.54,5.84,35,5.84,35-2.83-1.34-2.94.33a7.16,7.16,0,0,0,.32,2.76L241.19,447s-3.23,2-3.7,7.57-.24,6.47-.24,6.47,53.76,0,68-.52,23-2.41,24-3.57,2.2-4.17,2-4.71,4.52-43.81,4.63-49.18,3.74-18.09,3.74-18.09,43.24-3.58,48.41-3.64l2.79.42-25.87,53.16s4.34,5.7,10.34,7.62,9,1.6,9,1.6a15.14,15.14,0,0,1,1.31-3.39c.53-.58.27-5.92.21-7S418.8,387.74,424.65,379s6.48-14.91,4.71-17.23-46.93-15.45-57.2-17.73-23-1.29-23-1.29S337.07,351.8,326,355.85,289.79,355.75,289.79,355.75Z" style="fill:#A155B5"></path><path d="M237.25,461.5a.48.48,0,0,1-.48-.37c0-.11-.24-1.16.22-6.64.49-5.75,3.79-7.87,3.93-8a.49.49,0,0,1,.17-.06l55.52-11.42a8.63,8.63,0,0,1-.19-2.41,1.27,1.27,0,0,1,.63-1.09,2.85,2.85,0,0,1,2.15,0c-.6-3.1-2.71-14.31-5.67-34.18-3.52-23.6-4.23-41.42-4.24-41.6a.52.52,0,0,1,.17-.39.47.47,0,0,1,.41-.12c.25,0,25.14,4.07,36,.12s22.94-13,23.06-13.07a.51.51,0,0,1,.26-.09c.13,0,12.9-1,23.12,1.29,8.93,2,55.46,15.28,57.49,17.92,1.77,2.31,1.6,8.36-4.69,17.8-2.55,3.82-10.1,14.26-18.1,25.31-9.42,13-20.09,27.74-20.72,29.19.31,6.58-.13,7.07-.35,7.31a13.86,13.86,0,0,0-1.2,3.18.53.53,0,0,1-.43.37c-.12,0-3.11.31-9.15-1.62s-10.41-7.56-10.59-7.8a.51.51,0,0,1,0-.52l25.57-52.55-2.12-.32c-4.77.07-43.83,3.28-47.94,3.62-.57,2-3.53,12.88-3.63,17.63-.06,3-1.55,17.7-2.87,30.64-.92,9.07-1.79,17.64-1.77,18.44.22,1-1.1,4-2.11,5.14-1.32,1.46-10.8,3.25-24.38,3.73C291.18,461.48,237.79,461.5,237.25,461.5Zm4.14-14.07c-.45.32-3,2.36-3.4,7.14a50.88,50.88,0,0,0-.28,5.93c5.25,0,54.15-.05,67.48-.52,14.85-.53,22.87-2.51,23.68-3.4a9.84,9.84,0,0,0,1.88-4.23c-.1-.26,0-1.91,1.75-18.78,1.25-12.28,2.8-27.57,2.86-30.56.11-5.36,3.61-17.7,3.76-18.22a.49.49,0,0,1,.44-.36c1.77-.15,43.31-3.58,48.44-3.64l2.87.42a.48.48,0,0,1,.37.26.51.51,0,0,1,0,.45L365.52,434.8c.89,1.08,4.81,5.58,9.9,7.22a27.74,27.74,0,0,0,8.41,1.59,12.27,12.27,0,0,1,1.33-3.24c0-.05.37-.85.08-6.67,0-.66,3.69-5.94,20.92-29.75,8-11,15.54-21.47,18.08-25.27,5.61-8.43,6.42-14.43,4.72-16.64s-46.36-15.21-56.91-17.55c-9.5-2.1-21.25-1.38-22.68-1.29-1.29,1-12.77,9.3-23.2,13.12-10.24,3.74-31.86.64-35.85,0,.15,3.32,1.05,19.78,4.2,40.88,3.51,23.55,5.81,34.91,5.83,35a.5.5,0,0,1-.18.5.51.51,0,0,1-.52.06c-.62-.3-1.71-.62-2.1-.39,0,0-.11.07-.13.29a6.86,6.86,0,0,0,.29,2.55.5.5,0,0,1-.37.67Z" style="fill:#263238"></path><path d="M340.65,384.27a.54.54,0,0,1-.21,0,.5.5,0,0,1-.24-.67c3.32-6.95,7.38-15.32,7.9-15.71a.5.5,0,0,1,.6.81c-.47.57-4.92,9.71-7.59,15.33A.52.52,0,0,1,340.65,384.27Z" style="fill:#263238"></path><path d="M332.15,380.25a.48.48,0,0,1-.34-.14.48.48,0,0,1,0-.7l2.87-3.11a.5.5,0,1,1,.74.68l-2.88,3.11A.52.52,0,0,1,332.15,380.25Z" style="fill:#263238"></path><path d="M337.62,374.3a.55.55,0,0,1-.34-.13.51.51,0,0,1,0-.71c5.46-6,10.6-11.76,10.66-11.82a.5.5,0,1,1,.74.66c0,.06-5.19,5.84-10.66,11.83A.5.5,0,0,1,337.62,374.3Z" style="fill:#263238"></path><path d="M296.38,377.92a.52.52,0,0,1-.47-.33.5.5,0,0,1,.3-.64c.1,0,10.29-3.82,12.5-5.7a1.12,1.12,0,0,0,.38-.83c.14-1.92-2.55-5.43-3.6-6.62a.49.49,0,0,1,.05-.7.5.5,0,0,1,.7,0c.17.19,4.05,4.62,3.85,7.35a2.11,2.11,0,0,1-.73,1.52c-2.35,2-12.38,5.72-12.8,5.87A.39.39,0,0,1,296.38,377.92Z" style="fill:#263238"></path><path d="M300.45,437.43A.49.49,0,0,1,300,437l-.07-1.29a.5.5,0,0,1,.42-.52l2.26-.38a11.58,11.58,0,0,0-1.46-1.52.68.68,0,0,1-.34-.48c-.13-.68.71-2,1.35-2.83a22.2,22.2,0,0,1-1.63-4.93c-.39-1.81-1.7-10.41-2.93-19.16a.51.51,0,0,1,.43-.57.5.5,0,0,1,.56.43c1.2,8.58,2.54,17.32,2.92,19.08a20.09,20.09,0,0,0,1.67,5,.48.48,0,0,1,0,.54,8.87,8.87,0,0,0-1.33,2.21,18.83,18.83,0,0,1,2.13,2.31.5.5,0,0,1-.31.81l-2.68.44,0,.85a.48.48,0,0,1-.47.52Z" style="fill:#263238"></path><path d="M297.39,401.39a.51.51,0,0,1-.5-.43c-.63-4.71-1.43-11-1.66-14.24-.56-7.67.09-24.46.1-24.63a.51.51,0,0,1,.52-.48.5.5,0,0,1,.48.52c0,.17-.66,16.9-.11,24.52.23,3.21,1,9.48,1.66,14.18a.5.5,0,0,1-.42.56Z" style="fill:#263238"></path><path d="M241.51,450.21a.49.49,0,0,1-.49-.4.5.5,0,0,1,.39-.59l7.51-1.5a.51.51,0,0,1,.59.39.5.5,0,0,1-.39.59l-7.52,1.51Z" style="fill:#263238"></path><path d="M254.43,447.63a.51.51,0,0,1-.49-.41.49.49,0,0,1,.39-.58l41.5-8.31a.5.5,0,0,1,.59.39.51.51,0,0,1-.39.59l-41.5,8.31Z" style="fill:#263238"></path><path d="M392.62,381.75a.51.51,0,0,1-.5-.49.5.5,0,0,1,.49-.51A87.14,87.14,0,0,0,409,378.48a.5.5,0,0,1,.6.37.51.51,0,0,1-.36.61,89.38,89.38,0,0,1-16.63,2.29Z" style="fill:#263238"></path><path d="M403.24,383.63a.5.5,0,0,1-.49-.4.51.51,0,0,1,.4-.59c8.92-1.69,16.15-7.47,16.22-7.53a.5.5,0,0,1,.63.78c-.08.06-7.49,6-16.66,7.73Z" style="fill:#263238"></path><path d="M387.52,370.83a.51.51,0,0,1-.45-.29.49.49,0,0,1,.24-.66c1.49-.72,2.87-1.44,4.1-2.16a.5.5,0,1,1,.5.86c-1.25.74-2.65,1.47-4.17,2.2A.54.54,0,0,1,387.52,370.83Z" style="fill:#263238"></path><path d="M344.46,383.28a.49.49,0,0,1-.49-.41.49.49,0,0,1,.4-.58c.22,0,21.82-3.85,37.86-10.22a.51.51,0,0,1,.65.28.5.5,0,0,1-.28.65c-16.14,6.41-37.84,10.24-38.05,10.27Z" style="fill:#263238"></path><path d="M285.39,302s3.77,39,3.8,39.56-1.87,15.72-.32,16.59,5.35,1.62,10.67,2.68,16.07,1.11,23.52-.57,22.31-9.75,23.58-10.94,4.27-5.1,4.38-6.62-4.56-35.94-4.56-35.94l1.43-17,8.62-20.38s27.93-18.3,32.06-22.46,14.67-16,14.43-17.08-20.26-17.67-26.47-21.51-16-11.28-17.48-10.83-8.83,8.15-8.17,10.19,21.52,24.38,21.52,24.38l-14.65,8.44-34,17.09s-17.24,1.78-27.1,8.28-28.52,21.54-25.18,24.39S285.39,302,285.39,302Z" style="fill:#fff"></path><path d="M309.24,362.09a53.46,53.46,0,0,1-9.79-.76c-5.35-1.06-9.21-1.83-10.83-2.74-.95-.53-1.3-3.3-.07-15.44.07-.78.14-1.45.14-1.57,0-.53-2.47-25.83-3.78-39.32-1.33-1.11-10.7-9-13.79-11.62a1.69,1.69,0,0,1-.56-1.44c.31-5,18.33-18.82,25.8-23.75,9.47-6.25,25.84-8.19,27.23-8.35l33.93-17.05,14.09-8.11c-3.51-3.76-20.56-22.12-21.2-24.11a3,3,0,0,1,.47-2.17c1.56-3,6.59-8.22,8-8.65,1.08-.33,4.1,1.62,10.73,6.14,2.47,1.69,5,3.43,7.15,4.75,5.3,3.27,26.35,20.24,26.69,21.82.39,1.77-13.34,16.32-14.56,17.54-4,4.05-29.71,20.94-32,22.45l-8.53,20.17L347,306.76c.51,3.78,4.68,34.48,4.56,36-.13,1.72-3.29,5.76-4.54,6.94s-16.28,9.37-23.81,11.06A66.67,66.67,0,0,1,309.24,362.09Zm50-164.12h-.06c-1,.3-5.86,5.2-7.41,8.15-.5,1-.44,1.32-.41,1.41.46,1.41,13.06,15.24,21.41,24.19a.53.53,0,0,1,.13.42.49.49,0,0,1-.25.36L358,240.93,324,258a.41.41,0,0,1-.18.05c-.17,0-17.23,1.85-26.87,8.21-9.93,6.55-25.11,19.06-25.35,23a.67.67,0,0,0,.21.62c3.3,2.81,13.84,11.66,13.94,11.75a.48.48,0,0,1,.18.33c.15,1.6,3.77,39,3.8,39.58,0,.13,0,.44-.15,1.71-1.13,11.18-.84,14.05-.41,14.49,1.46.81,5.26,1.57,10.51,2.61s16,1.09,23.31-.57S345.18,350,346.29,349c1.3-1.23,4.14-5,4.23-6.29.08-1.09-2.68-22-4.56-35.84v-.11l1.43-17a.83.83,0,0,1,0-.15l8.62-20.38a.58.58,0,0,1,.18-.23c.28-.18,27.94-18.32,32-22.39,4.59-4.62,13.73-15,14.27-16.64-1.29-1.8-20.1-17.39-26.22-21.17-2.14-1.33-4.7-3.08-7.19-4.78C365.35,201.43,360.27,198,359.24,198Z" style="fill:#263238"></path><path d="M369,250.67a.53.53,0,0,1-.27-.08.5.5,0,0,1-.15-.69l1.55-2.39a.5.5,0,0,1,.84.55l-1.55,2.38A.48.48,0,0,1,369,250.67Z" style="fill:#263238"></path><path d="M356.51,269.87a.59.59,0,0,1-.23-.05.51.51,0,0,1-.24-.63l7.21-18.43a.5.5,0,0,1,.93.36L358.76,265l7.55-11.62a.5.5,0,1,1,.83.55l-10.21,15.72A.51.51,0,0,1,356.51,269.87Z" style="fill:#263238"></path><path d="M374.26,232.1a.5.5,0,0,1-.16-1c.39-.13,9.63-3.32,12.61-2.49a9.07,9.07,0,0,1,4.09,2,.5.5,0,1,1-.73.68,8.42,8.42,0,0,0-3.63-1.74c-2.23-.63-9.43,1.57-12,2.47A.51.51,0,0,1,374.26,232.1Z" style="fill:#263238"></path><path d="M379.79,229.57a.48.48,0,0,1-.41-.23.49.49,0,0,1,.14-.69A27.34,27.34,0,0,1,382.7,227c2.34-1.11,7.47.12,7.69.17a.51.51,0,0,1,.37.61.5.5,0,0,1-.61.36c-1.38-.33-5.34-1-7-.24a31.06,31.06,0,0,0-3.06,1.62A.47.47,0,0,1,379.79,229.57Z" style="fill:#263238"></path><path d="M311.34,340.43a.45.45,0,0,1-.25-.07,20,20,0,0,1-2.36-1.59.5.5,0,0,1,.61-.79,20.76,20.76,0,0,0,2.25,1.52.5.5,0,0,1-.25.93Z" style="fill:#263238"></path><path d="M306.74,336.93a.5.5,0,0,1-.34-.13c-8.29-7.58-17.52-21.75-17.62-21.89a.5.5,0,1,1,.84-.55c.1.14,9.26,14.21,17.45,21.7a.5.5,0,0,1-.33.87Z" style="fill:#263238"></path><path d="M315.78,346.62h-.11a29.76,29.76,0,0,1-3.74-1.1.5.5,0,0,1,.35-.94,27.72,27.72,0,0,0,3.61,1.06.5.5,0,0,1-.11,1Z" style="fill:#263238"></path><path d="M310.37,344.83a.52.52,0,0,1-.21,0,26.28,26.28,0,0,1-10.32-8,.5.5,0,1,1,.82-.57,25.78,25.78,0,0,0,9.91,7.64.5.5,0,0,1,.25.66A.49.49,0,0,1,310.37,344.83Z" style="fill:#263238"></path><polygon points="339.57 269.13 344.71 278.46 341.64 345.46 351.73 355.98 359.01 342.17 347.36 278.33 351.25 270.4 347.84 263.02 339.57 269.13" style="fill:#263238"></polygon><path d="M351.73,356.48a.5.5,0,0,1-.36-.16L341.28,345.8a.52.52,0,0,1-.14-.36l3.07-66.86-5.08-9.21a.49.49,0,0,1,.15-.64l8.26-6.11a.48.48,0,0,1,.42-.08.49.49,0,0,1,.33.28l3.42,7.37a.5.5,0,0,1,0,.43l-3.82,7.79,11.62,63.67a.54.54,0,0,1-.05.33l-7.28,13.8a.48.48,0,0,1-.37.26Zm-9.58-11.21,9.46,9.86,6.88-13-11.63-63.67a.49.49,0,0,1,.05-.31l3.79-7.72-3.06-6.6-7.42,5.48,4.93,9a.48.48,0,0,1,.06.26Z" style="fill:#263238"></path><path d="M344.26,212.32s10.32,5.63,10.39,7a9.87,9.87,0,0,0,1.43,3.54s6.15,3.63,7,4.69-1,5.71-1,5.71,3.79,6.72,3.84,7.82-.83,2.4-1.57,3.38-8,3.84-8,3.84l-8.65,19.27a9.1,9.1,0,0,1-2.5.28c-1-.11-19.75-18.1-19.75-18.1l2-5.23-7.11-13.8s5.31-13.61,11.6-16.74A19.91,19.91,0,0,1,344.26,212.32Z" style="fill:#fff"></path><path d="M345.6,268.41l-.44,0c-.92-.11-11.4-10-20-18.23a.51.51,0,0,1-.12-.54l1.89-5-7-13.6a.53.53,0,0,1,0-.41c.22-.56,5.46-13.83,11.85-17a20.12,20.12,0,0,1,12.66-1.73l.13,0c3.95,2.15,10.58,6,10.65,7.45a9,9,0,0,0,1.29,3.2c1,.59,6.18,3.7,7,4.75s-.31,4.62-.83,6c.84,1.5,3.74,6.74,3.79,7.84s-.81,2.56-1.67,3.7c-.74,1-6.43,3.3-8,3.93l-8.57,19.09a.51.51,0,0,1-.34.28A11.15,11.15,0,0,1,345.6,268.41Zm-19.55-18.75c7.29,7,18.28,17.28,19.32,17.75a7.64,7.64,0,0,0,2-.23l8.55-19a.46.46,0,0,1,.27-.26c3.49-1.39,7.36-3.14,7.77-3.68s1.51-2,1.46-3c0-.62-1.94-4.35-3.77-7.61a.47.47,0,0,1,0-.43c.82-2.11,1.45-4.71,1.05-5.21-.57-.72-4.5-3.18-6.84-4.57a.44.44,0,0,1-.17-.16,10.23,10.23,0,0,1-1.51-3.79c-.25-.8-5.41-4-10.07-6.59a19.62,19.62,0,0,0-11.93,1.68c-5.63,2.8-10.58,14.55-11.27,16.27l7,13.59a.47.47,0,0,1,0,.4Z" style="fill:#263238"></path><polygon points="356.37 248.34 348.61 249.54 353.71 253.98 356.37 248.34" style="fill:#263238"></polygon><path d="M353.72,254.48a.51.51,0,0,1-.33-.13l-5.11-4.44a.47.47,0,0,1-.15-.51.49.49,0,0,1,.4-.36l7.77-1.19a.48.48,0,0,1,.47.19.5.5,0,0,1,.05.51l-2.65,5.64a.55.55,0,0,1-.35.28Zm-4-4.61,3.8,3.3,2-4.19Z" style="fill:#263238"></path><path d="M348.73,223.14a.46.46,0,0,1-.23-.06.5.5,0,0,1-.22-.67,4.64,4.64,0,0,1,6-2.38.5.5,0,0,1-.4.92,3.6,3.6,0,0,0-4.75,1.91A.49.49,0,0,1,348.73,223.14Z" style="fill:#263238"></path><path d="M354.16,224.13c.42.75.41,1.56,0,1.8s-1.12-.18-1.54-.93-.42-1.56,0-1.8S353.74,223.37,354.16,224.13Z" style="fill:#263238"></path><path d="M357.68,236.93a.49.49,0,0,1-.43-.26.5.5,0,0,1,.19-.68c2.53-1.42,4.2-.19,4.27-.14a.5.5,0,0,1-.59.8c-.06,0-1.26-.87-3.19.22A.57.57,0,0,1,357.68,236.93Z" style="fill:#263238"></path><path d="M340.27,214.24s6.84-1.43,7.69-3.35,1.15-8.7-2.25-7.44-4,2.08-4,2.08-5.87-7.57-8.9-5.22-1.18,4.77-1.18,4.77-4.83.86-6.45,3,.11,2.35.11,2.35-11.55,8-11.89,17.23,10.4,16.78,14.12,19,4.81,2.12,6.34,1.26,4.77-5.42,4.77-5.42-5.19-3.2-6.08-5.36.08-4.87,2.11-5.13a4.16,4.16,0,0,1,4,2.16c.2.78,2.18-.57,2.18-.57s-2.22-3.51-2.9-4.73,4.39-6.5,4.15-8.22-6.71-2.34-7.21-3S340.27,214.24,340.27,214.24Z" style="fill:#263238"></path><path d="M332.08,248.91c-1.12,0-2.5-.54-4.8-1.88-1.51-.89-14.74-8.94-14.36-19.41.3-8.23,8.94-15.27,11.45-17.14a1.28,1.28,0,0,1-.27-.4c-.25-.62,0-1.38.7-2.32,1.36-1.78,4.67-2.71,6.1-3-.42-1-.77-2.95,1.63-4.81,3-2.32,7.86,3.18,9.26,4.9a15.4,15.4,0,0,1,3.75-1.83,2.08,2.08,0,0,1,2.41.45c1.6,1.7,1.1,6.21.47,7.66-.91,2-7,3.43-8,3.63a32,32,0,0,0-4.82,2.72c.39.11,1.07.27,1.64.41,2.94.69,5.2,1.33,5.39,2.67.13,1-.77,2.37-2.27,4.55-.78,1.14-2.08,3.05-1.94,3.5.67,1.19,2.86,4.67,2.88,4.7a.5.5,0,0,1-.14.68c-.62.43-1.77,1.1-2.45.84a.78.78,0,0,1-.49-.55,3.75,3.75,0,0,0-3.48-1.79,2.09,2.09,0,0,0-1.54,1.1,3.9,3.9,0,0,0-.17,3.34c.68,1.65,4.47,4.26,5.87,5.13a.5.5,0,0,1,.23.32.49.49,0,0,1-.09.39c-.33.48-3.34,4.68-4.92,5.56A4.07,4.07,0,0,1,332.08,248.91Zm2.12-48.55a1.68,1.68,0,0,0-1.06.34c-2.54,2-1.25,3.87-1.09,4.08a.49.49,0,0,1-.31.79c-.05,0-4.66.85-6.15,2.8-.67.87-.6,1.23-.57,1.32s.36.23.36.23a.49.49,0,0,1,.21.9c-.11.08-11.35,7.92-11.67,16.84-.36,9.89,12.41,17.65,13.87,18.5,3.79,2.22,4.61,2,5.85,1.26,1.06-.59,3.23-3.38,4.29-4.84-1.31-.85-5-3.4-5.82-5.31a4.86,4.86,0,0,1,.24-4.23,3,3,0,0,1,2.27-1.58,4.68,4.68,0,0,1,4.53,2.39,4.26,4.26,0,0,0,1.05-.47c-.61-1-2.1-3.35-2.65-4.33s.4-2.21,2-4.54c.92-1.35,2.19-3.2,2.1-3.85s-3.16-1.49-4.63-1.84-2.2-.53-2.47-.86a.61.61,0,0,1-.13-.55c.15-.68,2-1.9,5.63-3.62l.11,0c2.55-.53,6.8-1.83,7.34-3.07s.86-5.35-.28-6.56a1.1,1.1,0,0,0-1.33-.2c-3.1,1.16-3.76,1.91-3.77,1.92a.43.43,0,0,1-.4.18.5.5,0,0,1-.39-.18C340,204.13,336.53,200.36,334.2,200.36Z" style="fill:#263238"></path><polygon points="324.23 247.25 347.72 267.61 339.49 275.86 321.41 251.87 324.23 247.25" style="fill:#fff"></polygon><path d="M339.49,276.36h0a.49.49,0,0,1-.37-.2l-18.08-24a.5.5,0,0,1,0-.56L323.8,247a.52.52,0,0,1,.35-.23.5.5,0,0,1,.41.12l23.49,20.35a.48.48,0,0,1,.17.36.49.49,0,0,1-.14.37l-8.24,8.26A.5.5,0,0,1,339.49,276.36ZM322,251.84l17.52,23.26,7.45-7.46L324.35,248Z" style="fill:#263238"></path><polygon points="350.06 262.71 352.44 265.45 347.72 267.61 350.06 262.71" style="fill:#fff"></polygon><path d="M347.72,268.11a.47.47,0,0,1-.35-.15.49.49,0,0,1-.1-.56l2.34-4.9a.5.5,0,0,1,.83-.11l2.38,2.73a.53.53,0,0,1,.11.44.55.55,0,0,1-.28.35l-4.72,2.16A.52.52,0,0,1,347.72,268.11Zm2.46-4.49-1.41,3,2.85-1.31Z" style="fill:#263238"></path><polygon points="352.44 265.45 354.3 274.53 347.72 267.61 352.44 265.45" style="fill:#fff"></polygon><path d="M354.3,275a.51.51,0,0,1-.36-.15L347.36,268a.52.52,0,0,1-.13-.44.5.5,0,0,1,.28-.36l4.72-2.16a.5.5,0,0,1,.43,0,.5.5,0,0,1,.27.35l1.86,9.08a.51.51,0,0,1-.25.55A.69.69,0,0,1,354.3,275Zm-5.73-7.26,4.89,5.15-1.39-6.75Z" style="fill:#263238"></path><path d="M330.63,311.75s17.52-.23,18.13-.26,7.82,5.73,7.66,6.76-2.61,5-2.61,5-3.81,5.48-5,6.35-1,1.27-3,1.17a10.22,10.22,0,0,1-4.14-1.43s-10.06-1.35-11.58-3.31a22.84,22.84,0,0,0-4.26-3.87Z" style="fill:#fff"></path><path d="M346.38,331.3h-.58a10.42,10.42,0,0,1-4.29-1.45c-1.45-.2-10.25-1.48-11.8-3.49a22.22,22.22,0,0,0-4.16-3.76.5.5,0,0,1-.17-.62l4.8-10.43a.52.52,0,0,1,.45-.29c6.05-.08,17.63-.24,18.1-.26h0c.91,0,5.91,4.21,7.32,5.78.66.72.9,1.17.85,1.55-.16,1.08-2.26,4.53-2.68,5.21s-3.91,5.6-5.12,6.49c-.26.2-.45.37-.61.51A2.54,2.54,0,0,1,346.38,331.3ZM326.46,322a22,22,0,0,1,4,3.73c1,1.31,7.43,2.61,11.24,3.12a.68.68,0,0,1,.2.07,9.61,9.61,0,0,0,3.91,1.36c1.35.07,1.5-.06,2-.5a8.75,8.75,0,0,1,.69-.57c.91-.68,3.83-4.73,4.87-6.24a27.66,27.66,0,0,0,2.53-4.81c-.25-.92-6.28-5.81-7.22-6.18-1.22,0-15.37.23-17.75.26Z" style="fill:#263238"></path><path d="M354,323.1a.51.51,0,0,1-.41-.2l-5.21-7a.5.5,0,0,1,.8-.6l5.22,7a.5.5,0,0,1-.11.7A.46.46,0,0,1,354,323.1Z" style="fill:#263238"></path><path d="M351.88,326.2a.5.5,0,0,1-.34-.13L345,320a.5.5,0,1,1,.68-.73l6.54,6.06a.5.5,0,0,1-.34.86Z" style="fill:#263238"></path><path d="M349.14,329a.47.47,0,0,1-.27-.08l-5.67-3.6a.49.49,0,0,1-.16-.69.5.5,0,0,1,.69-.15l5.68,3.6a.5.5,0,0,1,.15.69A.48.48,0,0,1,349.14,329Z" style="fill:#263238"></path><path d="M356.42,318.25s1,5.06,1.27,6.05-1.63,2.45-2.66,1.88-1.22-2.91-1.22-2.91Z" style="fill:#fff"></path><path d="M355.57,326.81a1.56,1.56,0,0,1-.78-.2c-1.23-.68-1.45-3-1.48-3.3a.6.6,0,0,1,.06-.27l2.61-5a.52.52,0,0,1,.52-.27.49.49,0,0,1,.41.4c0,.05,1,5.05,1.26,6a2,2,0,0,1-.89,2A2.89,2.89,0,0,1,355.57,326.81Zm-1.24-3.45c.08.73.39,2.07.95,2.38a1.46,1.46,0,0,0,1.38-.39c.43-.35.61-.73.56-.91-.21-.67-.7-3.11-1-4.69Z" style="fill:#263238"></path><path d="M325.84,322.68a.54.54,0,0,1-.3-.1l-4.43-3.25a.49.49,0,0,1-.19-.54L324,307.43a.49.49,0,0,1,.31-.33.48.48,0,0,1,.45,0l6.12,4.19a.5.5,0,0,1,.17.62l-4.8,10.42a.49.49,0,0,1-.33.28ZM322,318.73l3.67,2.68,4.36-9.48-5.18-3.55Z" style="fill:#263238"></path><path d="M332.67,278s1-13.3-2.81-20-12.32-6.13-26-1.8-49.46,30.72-50.15,33.41,7.58,9.21,12.36,11,49,19,49.86,19.59,4.33,1,5.44-1.28,4.44-9.39,3.12-11.36-21.39-16.7-21.39-16.7l19.71-9.51" style="fill:#fff"></path><path d="M318.05,321.17a4.62,4.62,0,0,1-2.37-.55c-1.19-.67-43.95-17.34-49.76-19.54-4.45-1.68-13.48-8.39-12.66-11.61.77-3,36.78-29.41,50.48-33.76,12.95-4.11,22.42-5.33,26.56,2,3.82,6.8,2.91,19.78,2.87,20.32a.52.52,0,0,1-.54.47.5.5,0,0,1-.46-.54c0-.13.93-13.22-2.75-19.76-3.3-5.87-10.42-6.31-25.38-1.57C290,261.13,255,287.3,254.23,289.72c-.57,2.21,7.31,8.64,12,10.43,2.88,1.09,49,19,50,19.64a4.51,4.51,0,0,0,3,.23,2.49,2.49,0,0,0,1.7-1.31c2.74-5.66,3.92-9.72,3.15-10.87-.93-1.39-13.23-10.67-21.27-16.56a.51.51,0,0,1-.2-.45.49.49,0,0,1,.28-.41l19.71-9.51a.5.5,0,0,1,.44.9l-19,9.15c3.88,2.85,19.61,14.48,20.85,16.33,1,1.53,0,5.52-3.09,11.85A3.49,3.49,0,0,1,319.5,321,5.82,5.82,0,0,1,318.05,321.17Z" style="fill:#263238"></path><path d="M273.49,281.19a.5.5,0,0,1-.2-1,24.38,24.38,0,0,1,2.93-1,.5.5,0,0,1,.61.35.49.49,0,0,1-.34.61,23.89,23.89,0,0,0-2.8,1A.48.48,0,0,1,273.49,281.19Z" style="fill:#263238"></path><path d="M303.13,291.37a.48.48,0,0,1-.29-.09c-.14-.09-13.13-9.38-15.86-11.47-1.27-1-4.34-1-8.41-.14a.5.5,0,1,1-.21-1c2.56-.56,7.16-1.27,9.23.31,2.71,2.08,15.7,11.36,15.83,11.45a.51.51,0,0,1,.11.7A.49.49,0,0,1,303.13,291.37Z" style="fill:#263238"></path><path d="M292.62,280.67a.5.5,0,0,1-.46-.3c-1.9-4.41-7.63-4.2-7.68-4.19a.5.5,0,0,1-.05-1c.27,0,6.47-.26,8.65,4.79a.5.5,0,0,1-.26.66A.48.48,0,0,1,292.62,280.67Z" style="fill:#263238"></path><path d="M320.92,287a.5.5,0,0,1-.49-.45.5.5,0,0,1,.45-.55l2.87-.29a.51.51,0,0,1,.55.44.5.5,0,0,1-.45.55L321,287Z" style="fill:#263238"></path><path d="M309.93,288.14a.51.51,0,0,1-.5-.45.52.52,0,0,1,.45-.55l7.67-.79a.5.5,0,0,1,.1,1l-7.67.79Z" style="fill:#263238"></path><path d="M355.53,183.07s4.2-4.63,4.36-5.2,1.72-9.12,1.72-9.12l-2,1.78Z" style="fill:#fff"></path><path d="M355.53,183.57a.52.52,0,0,1-.25-.07.51.51,0,0,1-.23-.59l4.1-12.54a.6.6,0,0,1,.14-.21l2-1.78a.5.5,0,0,1,.83.46c-.16.88-1.57,8.58-1.73,9.16s-2.88,3.64-4.47,5.4A.51.51,0,0,1,355.53,183.57Zm4.53-12.76L356.74,181a33.7,33.7,0,0,0,2.67-3.24c.09-.33.84-4.32,1.44-7.61Z" style="fill:#263238"></path><path d="M347.36,201.07s-9-7.66-7.67-10.55,16-16,16-16,3.73-4.52,3.95-4-.83,6.25-1.69,8-7.88,12.25-7.88,12.25l3.94,3.57Z" style="fill:#fff"></path><path d="M347.36,201.57a.47.47,0,0,1-.32-.12c-1.56-1.32-9.26-8.06-7.8-11.15s15.5-15.64,16.1-16.18c3.52-4.26,4-4.18,4.31-4.13a.62.62,0,0,1,.44.36c.33.83-.87,6.71-1.7,8.39s-6.41,10.06-7.67,11.95l3.62,3.28a.52.52,0,0,1,0,.73l-6.65,6.72A.47.47,0,0,1,347.36,201.57Zm11.76-30.16c-.74.71-2,2.12-3.06,3.4-5.08,4.57-14.87,13.71-15.92,15.92-.84,1.79,3.83,6.74,7.19,9.66l5.95-6-3.55-3.22a.49.49,0,0,1-.08-.65c.07-.1,7-10.5,7.85-12.19A31.28,31.28,0,0,0,359.12,171.41Z" style="fill:#263238"></path></g><g id="freepik--arrow-1--inject-27"><path d="M441.64,26.48l-74,43.63,10.16,18.61c-1.38,1.16-106,122-156.76,180.62a89.82,89.82,0,0,1-68.29,31l-132.7-.49v40l143.58.07a114.47,114.47,0,0,0,86-38.84L398.3,125.72l11.28,20.68L444,31.18Z" style="fill:#263238"></path><path d="M163.74,340.42h-.07l-143.58-.07a.51.51,0,0,1-.5-.5v-40a.55.55,0,0,1,.15-.36.52.52,0,0,1,.35-.14h0l132.69.49h.4A89.16,89.16,0,0,0,220.7,269c56.5-65.27,150.49-173.8,156.53-180.36l-10-18.3a.5.5,0,0,1,.18-.67l74-43.63a.51.51,0,0,1,.4-.05.48.48,0,0,1,.3.26l2.35,4.7a.48.48,0,0,1,0,.37L410.06,146.54a.5.5,0,0,1-.43.36.51.51,0,0,1-.49-.26l-10.93-20L250,301.4A115,115,0,0,1,163.74,340.42ZM20.59,339.35l143.08.07h.07a114,114,0,0,0,85.54-38.67L397.91,125.4a.54.54,0,0,1,.44-.18.5.5,0,0,1,.38.26l10.71,19.63,34-113.88-2-4.05L368.36,70.3l9.92,18.19a.51.51,0,0,1-.12.62c-1.27,1.17-58.39,67-156.7,180.56a90.21,90.21,0,0,1-68.27,31.2h-.4l-132.2-.49Z" style="fill:#263238"></path><path d="M365.33,65.41,375.49,84c-1.38,1.16-106,122-156.76,180.62a89.78,89.78,0,0,1-68.29,31l-130.35-.48v40l141.23.08a114.48,114.48,0,0,0,86-38.85L395.94,121l11.29,20.68L441.64,26.48Z" style="fill:#fff"></path><path d="M161.38,335.72h-.06l-141.23-.08a.5.5,0,0,1-.5-.5v-40a.53.53,0,0,1,.15-.36.76.76,0,0,1,.36-.14l130.34.48h.4a89.2,89.2,0,0,0,67.51-30.85C274.84,199,368.84,90.52,374.88,83.94l-10-18.29a.53.53,0,0,1,0-.39.48.48,0,0,1,.25-.29L441.42,26a.47.47,0,0,1,.54.06.48.48,0,0,1,.16.52L407.71,141.84a.53.53,0,0,1-.43.36.51.51,0,0,1-.49-.26l-10.94-20L247.69,296.7A115,115,0,0,1,161.38,335.72ZM20.59,334.64l140.73.08h.06A114,114,0,0,0,246.93,296L395.56,120.69a.56.56,0,0,1,.44-.17.49.49,0,0,1,.38.26l10.71,19.63L440.83,27.46,366,65.62l9.91,18.16a.52.52,0,0,1-.12.63C374,86.07,265.62,211.23,219.11,265a90.18,90.18,0,0,1-68.27,31.2h-.4l-129.85-.48Z" style="fill:#263238"></path></g></svg>
