<svg xmlns="http://www.w3.org/2000/svg" xmlns:xlink="http://www.w3.org/1999/xlink" viewBox="0 0 480 480" width="480px" height="480px">
    <g id="surface135425347">
        <path 
            style="stroke: none; fill-rule: nonzero; fill: rgb(100%,100%,100%); fill-opacity: 1;" 
            d="M 449.023438 336.75 C 393.300781 327.5625 367.835938 269.851562 367.011719 267.976562 C 366.898438 267.636719 366.636719 267.039062 366.488281 266.699219 C 364.800781 263.324219 363.113281 258.5625 364.539062 255.1875 C 366.976562 249.414062 378.5625 245.738281 385.5 243.523438 C 387.9375 242.738281 390.261719 242.023438 392.0625 241.3125 C 408.898438 234.636719 417.300781 225.9375 417.113281 215.363281 C 416.960938 206.851562 410.4375 199.050781 400.835938 195.675781 C 397.5 194.25 393.675781 193.539062 389.8125 193.539062 C 387.1875 193.539062 383.210938 193.914062 379.386719 195.675781 C 372.976562 198.675781 367.351562 200.289062 363.335938 200.476562 C 362.476562 200.4375 361.726562 200.363281 361.085938 200.25 L 361.5 193.648438 C 363.375 163.800781 365.738281 126.601562 355.648438 103.988281 C 325.875 37.351562 262.800781 32.175781 244.164062 32.175781 L 235.6875 32.25 C 217.085938 32.25 154.125 37.425781 124.425781 104.023438 C 114.335938 126.636719 116.664062 163.800781 118.574219 193.6875 L 118.648438 194.8125 C 118.761719 196.648438 118.875 198.488281 118.988281 200.25 C 114.824219 201 106.6875 199.613281 98.25 195.675781 C 86.773438 190.3125 66.113281 197.398438 63.261719 212.398438 C 61.988281 219.039062 63.523438 231.636719 87.976562 241.273438 C 89.8125 242.023438 92.101562 242.738281 94.574219 243.523438 C 101.476562 245.738281 113.0625 249.375 115.5 255.1875 C 116.925781 258.5625 115.238281 263.324219 113.25 267.414062 C 112.199219 269.851562 86.886719 327.5625 31.050781 336.75 C 23.925781 337.914062 18.863281 344.210938 19.238281 351.488281 C 19.351562 353.398438 19.835938 355.3125 20.625 357.1875 C 25.6875 369.074219 44.101562 377.25 78.449219 382.835938 C 79.050781 384.863281 79.726562 387.863281 80.101562 389.511719 C 80.8125 392.925781 81.601562 396.375 82.648438 399.976562 C 83.664062 403.386719 87.148438 411.300781 98.023438 411.300781 C 101.324219 411.300781 104.925781 410.585938 108.789062 409.835938 C 114.488281 408.710938 121.613281 407.324219 130.761719 407.324219 C 135.863281 407.324219 141.113281 407.773438 146.398438 408.636719 C 156.148438 410.25 164.960938 416.511719 175.199219 423.710938 C 191.175781 435.039062 209.289062 447.824219 237.375 447.824219 C 238.125 447.824219 238.875 447.789062 239.585938 447.75 C 240.601562 447.789062 241.648438 447.824219 242.699219 447.824219 C 270.789062 447.824219 288.898438 435 304.914062 423.710938 C 314.664062 416.773438 323.886719 410.289062 333.675781 408.636719 C 338.960938 407.773438 344.210938 407.324219 349.3125 407.324219 C 358.125 407.324219 365.101562 408.449219 371.324219 409.6875 C 375.75 410.550781 379.273438 410.960938 382.539062 410.960938 C 389.8125 410.960938 395.398438 406.800781 397.425781 399.824219 C 398.476562 396.300781 399.226562 392.886719 399.976562 389.4375 C 400.273438 388.164062 400.988281 384.9375 401.625 382.800781 C 435.976562 377.210938 454.386719 369.039062 459.414062 357.261719 C 460.238281 355.386719 460.6875 353.4375 460.835938 351.414062 C 461.210938 344.25 456.148438 337.949219 449.023438 336.75 Z M 449.023438 336.75"
        />
        <path 
            style="stroke: black; stroke-width: 15; fill: none;" 
            d="M 449.023438 336.75 C 393.300781 327.5625 367.835938 269.851562 367.011719 267.976562 C 366.898438 267.636719 366.636719 267.039062 366.488281 266.699219 C 364.800781 263.324219 363.113281 258.5625 364.539062 255.1875 C 366.976562 249.414062 378.5625 245.738281 385.5 243.523438 C 387.9375 242.738281 390.261719 242.023438 392.0625 241.3125 C 408.898438 234.636719 417.300781 225.9375 417.113281 215.363281 C 416.960938 206.851562 410.4375 199.050781 400.835938 195.675781 C 397.5 194.25 393.675781 193.539062 389.8125 193.539062 C 387.1875 193.539062 383.210938 193.914062 379.386719 195.675781 C 372.976562 198.675781 367.351562 200.289062 363.335938 200.476562 C 362.476562 200.4375 361.726562 200.363281 361.085938 200.25 L 361.5 193.648438 C 363.375 163.800781 365.738281 126.601562 355.648438 103.988281 C 325.875 37.351562 262.800781 32.175781 244.164062 32.175781 L 235.6875 32.25 C 217.085938 32.25 154.125 37.425781 124.425781 104.023438 C 114.335938 126.636719 116.664062 163.800781 118.574219 193.6875 L 118.648438 194.8125 C 118.761719 196.648438 118.875 198.488281 118.988281 200.25 C 114.824219 201 106.6875 199.613281 98.25 195.675781 C 86.773438 190.3125 66.113281 197.398438 63.261719 212.398438 C 61.988281 219.039062 63.523438 231.636719 87.976562 241.273438 C 89.8125 242.023438 92.101562 242.738281 94.574219 243.523438 C 101.476562 245.738281 113.0625 249.375 115.5 255.1875 C 116.925781 258.5625 115.238281 263.324219 113.25 267.414062 C 112.199219 269.851562 86.886719 327.5625 31.050781 336.75 C 23.925781 337.914062 18.863281 344.210938 19.238281 351.488281 C 19.351562 353.398438 19.835938 355.3125 20.625 357.1875 C 25.6875 369.074219 44.101562 377.25 78.449219 382.835938 C 79.050781 384.863281 79.726562 387.863281 80.101562 389.511719 C 80.8125 392.925781 81.601562 396.375 82.648438 399.976562 C 83.664062 403.386719 87.148438 411.300781 98.023438 411.300781 C 101.324219 411.300781 104.925781 410.585938 108.789062 409.835938 C 114.488281 408.710938 121.613281 407.324219 130.761719 407.324219 C 135.863281 407.324219 141.113281 407.773438 146.398438 408.636719 C 156.148438 410.25 164.960938 416.511719 175.199219 423.710938 C 191.175781 435.039062 209.289062 447.824219 237.375 447.824219 C 238.125 447.824219 238.875 447.789062 239.585938 447.75 C 240.601562 447.789062 241.648438 447.824219 242.699219 447.824219 C 270.789062 447.824219 288.898438 435 304.914062 423.710938 C 314.664062 416.773438 323.886719 410.289062 333.675781 408.636719 C 338.960938 407.773438 344.210938 407.324219 349.3125 407.324219 C 358.125 407.324219 365.101562 408.449219 371.324219 409.6875 C 375.75 410.550781 379.273438 410.960938 382.539062 410.960938 C 389.8125 410.960938 395.398438 406.800781 397.425781 399.824219 C 398.476562 396.300781 399.226562 392.886719 399.976562 389.4375 C 400.273438 388.164062 400.988281 384.9375 401.625 382.800781 C 435.976562 377.210938 454.386719 369.039062 459.414062 357.261719 C 460.238281 355.386719 460.6875 353.4375 460.835938 351.414062 C 461.210938 344.25 456.148438 337.949219 449.023438 336.75 Z M 449.023438 336.75"
        />
    </g>
</svg>
