<?xml version="1.0" encoding="UTF-8"?>
<svg xmlns="http://www.w3.org/2000/svg" xmlns:xlink="http://www.w3.org/1999/xlink" viewBox="0 0 480 480" width="480px" height="480px">
<g id="surface135233437">
<path style=" stroke:none;fill-rule:nonzero;fill:rgb(100%,100%,100%);fill-opacity:1;" d="M 153.601562 28.800781 C 84.769531 28.800781 28.800781 84.769531 28.800781 153.601562 L 28.800781 326.398438 C 28.800781 395.230469 84.769531 451.199219 153.601562 451.199219 L 326.398438 451.199219 C 395.230469 451.199219 451.199219 395.230469 451.199219 326.398438 L 451.199219 153.601562 C 451.199219 84.769531 395.230469 28.800781 326.398438 28.800781 Z M 355.199219 105.601562 C 365.761719 105.601562 374.398438 114.238281 374.398438 124.800781 C 374.398438 135.359375 365.761719 144 355.199219 144 C 344.640625 144 336 135.359375 336 124.800781 C 336 114.238281 344.640625 105.601562 355.199219 105.601562 Z M 240 134.398438 C 298.273438 134.398438 345.601562 181.726562 345.601562 240 C 345.601562 298.273438 298.273438 345.601562 240 345.601562 C 181.726562 345.601562 134.398438 298.273438 134.398438 240 C 134.398438 181.726562 181.726562 134.398438 240 134.398438 Z M 240 153.601562 C 192.382812 153.601562 153.601562 192.382812 153.601562 240 C 153.601562 287.617188 192.382812 326.398438 240 326.398438 C 287.617188 326.398438 326.398438 287.617188 326.398438 240 C 326.398438 192.382812 287.617188 153.601562 240 153.601562 Z M 240 153.601562 "/>
</g>
</svg>
