<?xml version="1.0" encoding="UTF-8"?>
<svg xmlns="http://www.w3.org/2000/svg" xmlns:xlink="http://www.w3.org/1999/xlink" viewBox="0 0 480 480" width="480px" height="480px">
<g id="surface135151690">
<path style=" stroke:none;fill-rule:nonzero;fill:rgb(100%,100%,100%);fill-opacity:1;" d="M 240 48 C 133.96875 48 48 133.96875 48 240 C 48 276.019531 58.117188 309.601562 75.375 338.40625 L 49.71875 432 L 145.3125 406.90625 C 173.269531 422.800781 205.542969 432 240 432 C 346.03125 432 432 346.03125 432 240 C 432 133.96875 346.03125 48 240 48 Z M 174.28125 150.4375 C 177.402344 150.4375 180.605469 150.417969 183.375 150.5625 C 186.800781 150.640625 190.527344 150.894531 194.09375 158.78125 C 198.332031 168.15625 207.566406 191.679688 208.75 194.0625 C 209.933594 196.445312 210.773438 199.253906 209.125 202.375 C 207.558594 205.574219 206.742188 207.511719 204.4375 210.34375 C 202.054688 213.097656 199.441406 216.515625 197.28125 218.59375 C 194.898438 220.976562 192.433594 223.589844 195.1875 228.34375 C 197.941406 233.097656 207.496094 248.675781 221.625 261.25 C 239.785156 277.472656 255.105469 282.460938 259.875 284.84375 C 264.644531 287.226562 267.402344 286.855469 270.15625 283.65625 C 272.988281 280.535156 282.050781 269.832031 285.25 265.0625 C 288.371094 260.292969 291.554688 261.121094 295.875 262.6875 C 300.257812 264.253906 323.636719 275.773438 328.40625 278.15625 C 333.175781 280.539062 336.300781 281.71875 337.5 283.65625 C 338.730469 285.65625 338.734375 295.175781 334.78125 306.28125 C 330.828125 317.371094 311.421875 328.089844 302.71875 328.84375 C 293.933594 329.660156 285.738281 332.792969 245.625 317 C 197.242188 297.945312 166.726562 248.386719 164.34375 245.1875 C 161.960938 242.066406 144.96875 219.421875 144.96875 196.0625 C 144.96875 172.621094 157.257812 161.144531 161.5625 156.375 C 165.945312 151.605469 171.082031 150.4375 174.28125 150.4375 Z M 174.28125 150.4375 "/>
</g>
</svg>
