<svg xmlns="http://www.w3.org/2000/svg" xmlns:xlink="http://www.w3.org/1999/xlink" width="1600" height="1200" version="1.1" style=""><rect id="backgroundrect" width="100%" height="100%" x="0" y="0" fill="none" stroke="none"/>
        <path d="M1196.17828,790.7543500000002 C743.69103,816.8053599999998 939.8789400000001,1387.06174 1330,1583 C984.8922299999999,1583 188,1257.91795 188,860.4089399999998 C188,462.89992000000007 226.20800000000008,71 571.30991,71 C916.41768,71 1196.17828,393.24532999999997 1196.17828,790.7543500000002 z" fill="#8A499C" id="svg_1"/>
        <path d="M1953,-133.74975999999992 C1953,326.99405 1695.97462,496 1419.1798600000002,496 C1142.3851,496 918,122.49357000000009 918,-338.2502400000001 C918,-798.994049 1175.0195199999998,-968 1451.8201399999998,-968 C1728.6149,-968 1953,-594.493569 1953,-133.74975999999992 z" fill="#E16197" id="svg_2"/>
        <path d="M944.9362999999998,-1071.961059 C1577.6146800000001,-1008.676367 1815.3470399999997,-189.81655 1770.7764699999998,258.04783999999995 C1726.2059100000001,705.9122299999999 1471.81059,198.56644000000006 839.1322100000002,135.2817500000001 C206.45384000000013,71.99705999999992 311.09416999999985,-79.57405999999992 355.66472999999996,-527.4384500000001 C-94.02341999999999,-432.3257900000001 312.2579300000002,-1135.253327 944.9362999999998,-1071.961059 z" fill="#A155B5" id="svg_3"/>
        <path d="M1249.18896,-578.077665 C1594.4544999999998,-543.63104 1693.8468200000002,127.68023999999991 1669.52113,371.4284600000001 C1645.1954500000002,615.17668 1506.37046,339.0594000000001 1161.10493,304.61276999999995 C815.8393900000001,270.172 630.4457900000002,156.24821999999995 654.7656200000001,-87.5 C679.0913099999998,-331.24821999999995 903.9234200000001,-612.51844 1249.18896,-578.077665 z" fill="#F4F3EF" opacity="0.1" id="svg_4"/>
        <path d="M1215.02938,-398.34331999999995 C1441.63155,-375.73028 1266.97928,166.9129700000001 1245.5357199999999,381.83346000000006 C1224.0980100000002,596.7539499999998 1138.82096,356.99128999999994 912.2129399999999,334.37824 C685.61078,311.75934000000007 367.5916699999998,221.57131000000004 389.02937999999995,6.656680000000051 C410.4670900000001,-208.26380999999992 988.42137,-420.9563700000001 1215.02938,-398.34331999999995 z" fill="#8A499C" id="svg_5"/>
        <path d="M1703.56369,340.05899999999997 C1938.9667200000004,764.4646899999998 1693.3468400000002,1394.3698599999998 1414.57193,1549.9860600000002 C1135.7911600000002,1705.59641 741.28379,1242.9652 543.6000100000001,889.0968600000001 C345.9220799999998,535.2285200000001 715.9698699999999,-208.70395000000008 1156.8392800000001,-99.08706000000006 C1386.9056799999998,-41.88038000000006 1588.60363,132.7988600000001 1703.56369,340.05899999999997 z" fill="#9844AF" id="svg_6"/>
        <path d="M1681.93901,951.7523799999999 C1694.71738,1244.1421799999998 1591.1376300000002,1451.55204 1421.67492,1546.1961099999999 C1252.2122,1640.8401800000001 1005.1364199999998,1378.0284900000001 892.2334999999998,1144.2501900000002 C651.3829300000002,645.5340900000001 975.2753299999999,-19.02439000000004 1328.03325,249.8962100000001 C1544.47492,414.89517 1670.03908,679.3878399999999 1681.93901,951.7523799999999 z" fill="#F4F3EF" opacity="0.1" id="svg_7"/>
        <path d="M1910.1729400000004,809.1060200000002 C1922.9444999999996,1101.55885 1785.6063999999997,1388.6044700000002 1650.0476600000002,1403.6779099999999 C1463.03982,1424.4632000000001 1410.63665,1196.0593 1405.1522599999998,1007.8141300000002 C1399.52153,814.5483899999999 1551.3344499999998,316.0235399999999 1650.0476600000002,748.5837900000001 C1722.9778000000001,1068.1547500000001 1898.2793600000005,536.6827499999999 1910.1729400000004,809.1060200000002 z" fill="#AF5CC4" id="svg_8"/>
        <path d="M1303.17769,854.95667 C1126.4238300000002,1195.6563999999998 381.0497300000002,1622.95131 -318.00163,1451 C-1017.0529799999999,1279.04869 -0.7139999999999418,1188.4619699999998 -0.7139999999999418,791.2380800000001 C-0.7139999999999418,394.0141900000001 223.69581000000017,72 568.2570799999999,72 C716.43491,72 852.5321100000001,131.49912999999992 959.5504099999998,230.97605999999996 C1180.87282,372.4179899999999 1412.27765,644.66408 1303.17769,854.95667 z" fill="#DE75FA" id="svg_9"/>
        <path d="M203.63581999999997,940.84557 C-194.8344900000002,1041.6996399999998 -777.0543500000001,1004.8618099999999 -668.8190300000001,701.4114 C-489.83337000000006,199.6187500000001 -56.727949999999964,-135.94368000000009 479,-68.35701999999992 C689.7878999999998,-41.76881000000003 891.4961699999999,123.31754999999998 991.9440500000001,276.85312999999996 C1222.95489,629.9554800000001 811.6357400000002,786.9553299999998 203.63581999999997,940.84557 z" fill="#8A499C" id="svg_10"/>
        <path d="M77.45789000000013,-377.81809 C474.38238,-303.4434000000001 1016.9274599999999,19.35509000000002 782.58898,493.46754999999985 C652.6405800000002,756.37851 71.06718000000001,977.97026 -130.43282,887.97026 C-464.4384399999999,738.7866100000001 -562.7940699999999,-497.78368 77.45789000000013,-377.81809 z" fill="#BA62D1" id="svg_11"/>
        <path d="M2461,2066.99031 C2461,2477.35772 1967.6915800000002,3081 1572.81059,3081 C1177.92374,3081 1031,2477.35772 1031,2066.99031 C1031,1656.62876 1177.92374,1323 1572.81059,1323 C1967.6915800000002,1323 2461,1656.62876 2461,2066.99031 z" fill="#8A499C" transform="rotate(35 -297.00000000000006,312.00000000000006) translate(-2043,-1890) " id="svg_12"/>
        <path d="M1973.5,1945.1445 C1973.5,2355.04672 1570.41061,2958 1247.74478,2958 C925.0789500000001,2958 584.5,2489.90222 584.5,2080 C584.5,1670.10363 925.0789500000001,1202 1247.74478,1202 C1570.41061,1202 1973.5,1535.24813 1973.5,1945.1445 z" fill="#A155B5" transform="rotate(47 -530.5000000000001,250.99999999999997) translate(-1809.5,-1829) " id="svg_13"/>
        <path fill="#4a90d6" fill-opacity="1" stroke="#222222" stroke-opacity="1" stroke-width="2" stroke-dasharray="none" stroke-linejoin="round" stroke-linecap="butt" stroke-dashoffset="" fill-rule="nonzero" opacity="1" marker-start="" marker-mid="" marker-end="" id="svg_16" d="M-566.666697396171,1679.9999072154399 " style="color: rgb(0, 0, 0);"/><path fill="#14181B" fill-opacity="1" stroke="none" stroke-opacity="1" stroke-width="2" stroke-dasharray="none" stroke-linejoin="round" stroke-linecap="butt" stroke-dashoffset="" fill-rule="nonzero" opacity="1" marker-start="" marker-mid="" marker-end="" id="svg_18" d="M-76.00015623421771,-19.27515514105194 C-76.00015623421771,-19.27515514105194 -136.0001658027266,-1147.255553168502 894.9998767828193,-971.1396441086363 C1235.999824330512,-950.1734761897281 2030.999808613256,173.6136651911441 1733.9998707491366,399.0001144618817 C1273.9998540572346,-102.44098215818855 319.3331809227359,440.2335951581131 -76.00015623421771,-19.27515514105194 z" style="color: rgb(0, 0, 0);" class=""/><path fill="#14181B" fill-opacity="1" stroke="none" stroke-opacity="1" stroke-width="2" stroke-dasharray="none" stroke-linejoin="round" stroke-linecap="butt" stroke-dashoffset="" fill-rule="nonzero" opacity="1" marker-start="" marker-mid="" marker-end="" id="svg_20" d="M1009.9999463558203,-510.000015646219 " style="color: rgb(0, 0, 0);"/>
</svg>