<?xml version="1.0"?>
<svg width="750" height="500" xmlns="http://www.w3.org/2000/svg" xmlns:svg="http://www.w3.org/2000/svg">
 <g class="layer">
  <title>Layer 1</title>
  <g id="freepik--background-simple--inject-30" transform="matrix(1 0 0 1 0 0)">
   <path d="m74.1,440l509.59,0c29.57,-10.46 55.49,-31.32 60,-109.37c0,0 9,-178 -127.6,-227s-205.43,-13 -248.87,33s-57.92,76 -107.69,82s-95.93,16 -119.46,83c-20.28,57.82 -0.79,105.23 34.03,138.37z" fill="#A155B5" id="svg_1"/>
   <path d="m74.1,440l509.59,0c29.57,-10.46 55.49,-31.32 60,-109.37c0,0 9,-178 -127.6,-227s-205.43,-13 -248.87,33s-57.92,76 -107.69,82s-95.93,16 -119.46,83c-20.28,57.82 -0.79,105.23 34.03,138.37z" fill="#fff" id="svg_2" opacity="0.7"/>
  </g>
  <g id="freepik--Wall--inject-30">
   <rect height="20.03" id="svg_3" opacity="0.2" width="49.47" x="126.22" y="242.5"/>
   <rect height="20.03" id="svg_4" opacity="0.2" width="49.47" x="297.19" y="187.47"/>
   <rect height="20.03" id="svg_5" opacity="0.2" width="49.47" x="450.49" y="187.47"/>
   <rect height="20.03" id="svg_6" opacity="0.2" width="49.47" x="538.93" y="224.81"/>
   <rect height="20.03" id="svg_7" opacity="0.1" width="49.47" x="270.09" y="215.15"/>
   <rect height="20.03" id="svg_8" opacity="0.2" width="49.47" x="184.25" y="187.47"/>
   <rect height="20.03" id="svg_9" opacity="0.1" width="49.47" x="157.16" y="215.15"/>
   <rect height="20.03" id="svg_10" opacity="0.1" width="49.47" x="213.7" y="215.15"/>
   <rect height="20.03" id="svg_11" opacity="0.2" width="49.47" x="68.62" y="260.99"/>
   <rect height="20.03" id="svg_12" opacity="0.1" width="49.47" x="44.23" y="215.15"/>
   <rect height="20.03" id="svg_13" opacity="0.1" width="49.47" x="100.77" y="215.15"/>
   <rect height="20.03" id="svg_14" opacity="0.2" width="49.47" x="297.19" y="74.46"/>
   <rect height="20.03" id="svg_15" opacity="0.1" width="49.47" x="270.09" y="102.14"/>
   <rect height="20.03" id="svg_16" opacity="0.2" width="49.47" x="303.36" y="370"/>
   <rect height="20.03" id="svg_17" opacity="0.1" width="49.47" x="276.26" y="397.68"/>
   <rect height="20.03" id="svg_18" opacity="0.2" width="49.47" x="545.81" y="74.46"/>
   <rect height="20.03" id="svg_19" opacity="0.1" width="49.47" x="518.72" y="102.14"/>
   <rect height="20.03" id="svg_20" opacity="0.2" width="49.47" x="563.64" y="248.63"/>
   <rect height="20.03" id="svg_21" opacity="0.1" width="49.47" x="536.55" y="276.31"/>
   <rect height="20.03" id="svg_22" opacity="0.2" width="49.47" x="486.84" y="317.88"/>
   <rect height="20.03" id="svg_23" opacity="0.1" width="49.47" x="459.75" y="345.57"/>
   <rect height="20.03" id="svg_24" opacity="0.2" width="49.47" x="411.41" y="170.46"/>
   <rect height="20.03" id="svg_25" opacity="0.1" width="49.47" x="384.32" y="198.14"/>
   <rect height="20.03" id="svg_26" opacity="0.2" width="49.47" x="198.01" y="74.46"/>
   <rect height="20.03" id="svg_27" opacity="0.1" width="49.47" x="213.7" y="157.81"/>
   <rect height="20.03" id="svg_28" opacity="0.1" width="49.47" x="592.9" y="157.81"/>
   <rect height="20.03" id="svg_29" opacity="0.1" width="49.47" x="632.05" y="278.78"/>
   <rect height="20.03" id="svg_30" opacity="0.1" width="49.47" x="537.43" y="157.81"/>
   <rect height="20.03" id="svg_31" opacity="0.1" width="49.47" x="567.53" y="202.38"/>
   <rect height="20.03" id="svg_32" opacity="0.1" width="49.47" x="512.74" y="202.38"/>
   <rect height="20.03" id="svg_33" opacity="0.2" width="49.47" x="354.59" y="289.67"/>
   <rect height="20.03" id="svg_34" opacity="0.2" width="49.47" x="354.59" y="343.72"/>
   <rect height="20.03" id="svg_35" opacity="0.2" width="49.47" x="126.22" y="344.7"/>
   <rect height="20.03" id="svg_36" opacity="0.1" width="49.47" x="439.57" y="317.35"/>
   <rect height="20.03" id="svg_37" opacity="0.1" width="49.47" x="412.57" y="343.54"/>
   <rect height="20.03" id="svg_38" opacity="0.1" width="49.47" x="582.6" y="317.35"/>
   <rect height="20.03" id="svg_39" opacity="0.1" width="49.47" x="555.61" y="343.54"/>
   <rect height="20.03" id="svg_40" opacity="0.2" width="49.47" x="297.19" y="289.67"/>
   <rect height="20.03" id="svg_41" opacity="0.1" width="49.47" x="326.63" y="317.35"/>
   <rect height="20.03" id="svg_42" opacity="0.1" width="49.47" x="303.05" y="374.35"/>
   <rect height="20.03" id="svg_43" opacity="0.1" width="49.47" x="373.8" y="400.88"/>
   <rect height="20.03" id="svg_44" opacity="0.1" width="49.47" x="187.09" y="400.88"/>
   <rect height="20.03" id="svg_45" opacity="0.1" width="49.47" x="46.02" y="400.88"/>
   <rect height="20.03" id="svg_46" opacity="0.1" width="49.47" x="225.87" y="249.54"/>
   <rect height="20.03" id="svg_47" opacity="0.1" width="49.47" x="282.41" y="249.54"/>
   <rect height="20.03" id="svg_48" opacity="0.1" width="49.47" x="439.65" y="249.54"/>
   <rect height="20.03" id="svg_49" opacity="0.2" width="49.47" x="184.25" y="289.67"/>
   <rect height="20.03" id="svg_50" opacity="0.1" width="49.47" x="238.72" y="346.83"/>
   <rect height="20.03" id="svg_51" opacity="0.2" width="49.47" x="71.32" y="289.67"/>
   <rect height="20.03" id="svg_52" opacity="0.2" width="49.47" x="68.62" y="363.19"/>
   <rect height="20.03" id="svg_53" opacity="0.1" width="49.47" x="44.23" y="317.35"/>
   <rect height="20.03" id="svg_54" opacity="0.1" width="49.47" x="100.77" y="317.35"/>
  </g>
  <g id="freepik--Board--inject-30" transform="matrix(1 0 0 1 0 0)">
   <rect fill="#fff" height="295.87" id="svg_55" stroke="#263238" stroke-linecap="round" stroke-linejoin="round" width="291.28" x="249.17" y="101.09"/>
   <rect fill="#b8b8b8" height="283.05" id="svg_56" stroke="#263238" stroke-linecap="round" stroke-linejoin="round" width="278.66" x="255.48" y="107.5"/>
  </g>
  <g id="freepik--Lamp--inject-30">
   <circle cx="620.51" cy="104.82" fill="#fff" id="svg_57" r="9.92" stroke="#263238" stroke-miterlimit="10" transform="matrix(0.99, -0.13, 0.13, 0.99, -8.25, 78.84)"/>
   <polygon fill="#263238" id="svg_58" points="664.73 106.82 575.51 106.82 606.74 69.53 633.51 69.53 664.73 106.82"/>
   <rect fill="#263238" height="11.78" id="svg_59" width="11.78" x="614.23" y="62.32"/>
   <line fill="none" id="svg_60" stroke="#263238" stroke-miterlimit="10" x1="620.6" x2="620.6" y1="64.53" y2="30.46"/>
  </g>
  <g id="freepik--Storyboard--inject-30">
   <rect fill="#fff" height="73.31" id="svg_258" stroke="#263238" stroke-linecap="round" stroke-linejoin="round" width="98.71" x="404.62" y="207.36"/>
   <rect fill="#fff" height="73.31" id="svg_259" stroke="#263238" stroke-linecap="round" stroke-linejoin="round" transform="matrix(1 0 0 1 0 0)" width="98.71" x="350.04" y="126.27"/>
   <rect fill="#fff" height="73.31" id="svg_144" stroke="#263238" stroke-linecap="round" stroke-linejoin="round" width="98.71" x="406.2" y="292.03"/>
   <rect fill="#fff" height="73.31" id="svg_256" stroke="#263238" stroke-linecap="round" stroke-linejoin="round" width="98.71" x="293.05" y="292.03"/>
   <rect fill="#fff" height="73.31" id="svg_257" stroke="#263238" stroke-linecap="round" stroke-linejoin="round" width="98.71" x="293.05" y="207.36"/>
   <g id="svg_260">
    <circle cx="346.91" cy="208.73" fill="#A155B5" id="svg_261" r="3.16" stroke="#263238" stroke-linecap="round" stroke-linejoin="round"/>
    <circle cx="348.59" cy="207.51" fill="#A155B5" id="svg_262" r="3.16" stroke="#263238" stroke-linecap="round" stroke-linejoin="round"/>
    <line fill="none" id="svg_263" stroke="#263238" stroke-linecap="round" stroke-linejoin="round" x1="344.2" x2="343.13" y1="211.12" y2="212.04"/>
   </g>
   <g id="svg_264">
    <circle cx="455.49" cy="209.93" fill="#A155B5" id="svg_265" r="3.16" stroke="#263238" stroke-linecap="round" stroke-linejoin="round"/>
    <circle cx="457.17" cy="208.71" fill="#A155B5" id="svg_266" r="3.16" stroke="#263238" stroke-linecap="round" stroke-linejoin="round"/>
    <line fill="none" id="svg_267" stroke="#263238" stroke-linecap="round" stroke-linejoin="round" x1="452.78" x2="451.71" y1="212.32" y2="213.24"/>
   </g>
   <g id="svg_268">
    <circle cx="401.49" cy="126.93" fill="#A155B5" id="svg_269" r="3.16" stroke="#263238" stroke-linecap="round" stroke-linejoin="round"/>
    <circle cx="403.17" cy="125.71" fill="#A155B5" id="svg_270" r="3.16" stroke="#263238" stroke-linecap="round" stroke-linejoin="round"/>
    <line fill="none" id="svg_271" stroke="#263238" stroke-linecap="round" stroke-linejoin="round" x1="398.78" x2="397.71" y1="129.32" y2="130.24"/>
   </g>
   <g id="svg_272">
    <circle cx="345.49" cy="295.08" fill="#A155B5" id="svg_273" r="3.16" stroke="#263238" stroke-linecap="round" stroke-linejoin="round"/>
    <circle cx="347.17" cy="293.86" fill="#A155B5" id="svg_274" r="3.16" stroke="#263238" stroke-linecap="round" stroke-linejoin="round"/>
    <line fill="none" id="svg_275" stroke="#263238" stroke-linecap="round" stroke-linejoin="round" x1="342.78" x2="341.71" y1="297.47" y2="298.39"/>
   </g>
   <g id="svg_276">
    <circle cx="457.49" cy="294.1" fill="#A155B5" id="svg_277" r="3.16" stroke="#263238" stroke-linecap="round" stroke-linejoin="round"/>
    <circle cx="459.17" cy="292.88" fill="#A155B5" id="svg_278" r="3.16" stroke="#263238" stroke-linecap="round" stroke-linejoin="round"/>
    <line fill="none" id="svg_279" stroke="#263238" stroke-linecap="round" stroke-linejoin="round" x1="454.78" x2="453.71" y1="296.49" y2="297.41"/>
   </g>
  </g>
  <g id="freepik--Plant--inject-30">
   <path d="m607.3,411.9c0.06,1.43 0.17,2.86 0.26,4.28c0.22,2.85 0.39,19.29 0.65,22.13c0,0.48 0.11,0.95 0.16,1.43l2,0c0,-0.52 0,-1 0,-1.55c0,-2.84 -0.06,-19.26 -0.09,-22.1l-0.08,-4.25l0.08,-4.25l0,-8.5l0.23,-8.5l0.08,-4.25c0.06,-1.41 0.16,-2.82 0.24,-4.24l0.52,-8.49a303.71,303.71 0 0 1 4.81,-33.68a197.37,197.37 0 0 1 9.2,-32.77l0,0a0.15,0.15 0 0 0 -0.27,-0.11a197.48,197.48 0 0 0 -10.39,32.57a303.3,303.3 0 0 0 -5.74,33.77l-0.81,8.53c-0.12,1.43 -0.28,2.85 -0.38,4.27l-0.23,4.29c-0.13,2.85 -0.3,5.71 -0.38,8.57l0.07,8.57l0.07,4.28z" fill="#263238" id="svg_198"/>
   <path d="m617.34,439.74c0.22,-2.8 0.42,-19.18 0.61,-22c0.53,-7.42 0.6,-14.86 1.09,-22.29a195.76,195.76 0 0 1 2.65,-22.09a200.21,200.21 0 0 1 4.86,-21.78a0.15,0.15 0 0 0 -0.1,-0.19a0.15,0.15 0 0 0 -0.19,0.09a197.62,197.62 0 0 0 -9.62,43.77c-0.75,7.44 -1.58,14.88 -1.69,22.36c0,2.84 0,19.26 0,22.1l2.39,0.03z" fill="#263238" id="svg_199"/>
   <path d="m623.3,439.74l0.28,-16.9c0.75,-7.16 1.21,-14.37 2.75,-21.36c0.19,-0.87 0.45,-1.73 0.67,-2.59a22,22 0 0 1 0.76,-2.55l0.88,-2.51l1.13,-2.36a64.82,64.82 0 0 1 5.9,-9a74.59,74.59 0 0 1 15.47,-15.05l0,0a0.15,0.15 0 0 0 0,-0.2a0.16,0.16 0 0 0 -0.21,-0.05a75.2,75.2 0 0 0 -16.47,14.37a65.82,65.82 0 0 0 -6.45,8.95l-1.32,2.5l-1,2.6a24.71,24.71 0 0 0 -0.9,2.63c-0.27,0.88 -0.56,1.77 -0.8,2.66a105.73,105.73 0 0 0 -3.41,21.73c-0.05,1.17 -0.08,15.93 -0.1,17.11l2.82,0.02z" fill="#263238" id="svg_200"/>
   <path d="m628.54,439.74c0.23,-1.61 0.43,-16.8 0.56,-18.43c0.26,-1.87 0.4,-3.79 0.81,-5.65a51.39,51.39 0 0 1 3.22,-10.93c1.46,-3.48 3.36,-6.94 6.29,-9.39l0,0a0.15,0.15 0 0 0 0,-0.2a0.15,0.15 0 0 0 -0.21,0c-3.36,2.17 -5.6,5.57 -7.49,9a53.43,53.43 0 0 0 -4.2,11c-0.29,0.94 -0.52,1.9 -0.73,2.86l-0.68,2.88c-0.31,1.75 -0.55,17.11 -0.67,18.88l3.1,-0.02z" fill="#263238" id="svg_201"/>
   <path d="m598.43,388.46c1.18,9.54 2.09,19.11 3.29,28.64l1.11,22.64l2.54,0c-0.18,-3.13 -0.43,-19.83 -0.66,-23c-0.81,-9.62 -2.4,-19.14 -3.9,-28.66s-3.16,-19 -4.9,-28.48s-3.69,-18.91 -5.73,-28.32a0.15,0.15 0 0 0 -0.17,-0.12a0.16,0.16 0 0 0 -0.13,0.18c1.65,9.48 3.14,19 4.55,28.51s2.8,19.07 4,28.61z" fill="#263238" id="svg_202"/>
   <path d="m574.58,352.88a42.56,42.56 0 0 1 6.35,9.42c0.83,1.71 1.72,3.39 2.43,5.16l1.13,2.61l1,2.68a155.36,155.36 0 0 1 6.41,21.88c0.88,3.7 1.46,7.47 2.18,11.2l0.9,5.64c0.33,1.87 0.73,3.74 1,5.62c0.48,3 1,19.63 1.56,22.65l2.35,0c-0.25,-3.17 -0.61,-19.93 -0.94,-23.1c-0.51,-3.81 -1.21,-7.59 -1.94,-11.37l-1.35,-5.62c-0.44,-1.87 -0.86,-3.74 -1.41,-5.59a159.3,159.3 0 0 0 -7.35,-21.88l-1.16,-2.64l-1.29,-2.54c-0.81,-1.75 -1.8,-3.41 -2.74,-5.09a42.6,42.6 0 0 0 -6.94,-9.2a0.13,0.13 0 0 0 -0.2,0a0.15,0.15 0 0 0 0,0.21l0.01,-0.04z" fill="#263238" id="svg_203"/>
   <path d="m583.51,402.9c2,4.92 3.71,9.91 5.19,15c0.81,2.74 1.5,19.09 2.17,21.86l3.13,0c-0.9,-3 -2,-19.62 -3,-22.61c-1.78,-5 -3.84,-10 -6.09,-14.83a135.18,135.18 0 0 0 -7.66,-14a0.16,0.16 0 0 0 -0.21,-0.05a0.15,0.15 0 0 0 0,0.2a133.52,133.52 0 0 1 6.47,14.43z" fill="#263238" id="svg_204"/>
   <path d="m571.8,412.73a22.12,22.12 0 0 1 7.38,5.73c2.06,2.3 3.71,18.53 5.09,21.28l2.8,0l-0.65,-1.09c-1.74,-2.79 -3.75,-19 -6.17,-21.24a27.41,27.41 0 0 0 -3.92,-3a16.26,16.26 0 0 0 -4.45,-2a0.15,0.15 0 0 0 -0.17,0.09a0.14,0.14 0 0 0 0.08,0.19l0.01,0.04z" fill="#263238" id="svg_205"/>
   <path d="m591.24,345.09s-15.76,-3.64 -19.4,-20.61s8.09,-9.7 -2.42,-36.38s-8.08,-32.73 -4.45,-40.41s5.66,-5.25 8.9,4.85s15,25.87 19.4,55.37s-2.03,37.18 -2.03,37.18z" fill="#A155B5" id="svg_206"/>
   <path d="m622.36,316.4s-10.5,-3.64 -10.91,-23.45s7.68,-15.76 8.89,-40.41s2.83,-42 7.28,-42.44s16.16,12.13 20.21,39.61s-5.26,45.67 -13.34,53.75s-12.13,12.94 -12.13,12.94z" fill="#A155B5" id="svg_207"/>
   <path d="m585.59,368.94s-2.43,-14.55 -7.28,-21.42s-15.31,-12.94 -22.23,-26.27s-14.55,-19.81 -14.14,-0.81s8.89,28.69 19.4,35.16s24.25,13.34 24.25,13.34z" fill="#A155B5" id="svg_208"/>
   <path d="m581.14,394s-9.7,-18.59 -23.84,-32.33s-25.47,-20.61 -21.43,-13.74s8.9,6.47 15.77,18.59s4.85,21 14.55,27.89s14.95,-0.41 14.95,-0.41z" fill="#A155B5" id="svg_209"/>
   <path d="m579.93,417.84c-0.41,-1.21 -0.81,-10.1 -14.55,-17.38s-26.68,-4.44 -25.06,-0.81s10.1,9.7 18.59,13.34s21.02,4.85 21.02,4.85z" fill="#A155B5" id="svg_210"/>
   <path d="m621.56,369.75s-6.07,-7.68 -2.83,-23.85s10.51,-12.13 18.59,-20.61s6.46,-9.7 14.55,-18.59s15.36,-13.75 18.59,-10.11s-1.62,15 -6.47,21.42s-12.53,9.7 -16.16,17.79s-2,21 -11.32,27.07s-14.95,6.88 -14.95,6.88z" fill="#A155B5" id="svg_211"/>
   <path d="m641.76,374.19s14.55,-16.57 25.06,-28.69s14.55,-21.42 15,-13.34s3.63,14.55 -4.85,25.06s-35.21,16.97 -35.21,16.97z" fill="#A155B5" id="svg_212"/>
   <path d="m634.09,400.87s-0.41,-6.47 22.63,-21.43s32.73,-17.78 30.31,-11.72s-12.53,12.13 -23.44,23s-29.5,10.15 -29.5,10.15z" fill="#A155B5" id="svg_213"/>
   <path d="m592.21,343.37s-5.41,-29 -11.07,-49.61s-9.3,-33.14 -9.3,-33.14" fill="none" id="svg_214" stroke="#263238" stroke-linecap="round" stroke-linejoin="round"/>
   <path d="m621.43,316.7s9.83,-31.42 13.06,-50.42s-0.4,-33.14 -2,-41.63" fill="none" id="svg_215" stroke="#263238" stroke-linecap="round" stroke-linejoin="round"/>
   <path d="m584.31,368.33a152.51,152.51 0 0 0 -14.89,-21.22c-8.89,-10.51 -15.76,-16.16 -19.8,-26.27" fill="none" id="svg_216" stroke="#263238" stroke-linecap="round" stroke-linejoin="round"/>
   <path d="m621.56,369.75s3.23,-19.4 10.91,-29.51s23,-25.86 29.1,-36" fill="none" id="svg_217" stroke="#263238" stroke-linecap="round" stroke-linejoin="round"/>
   <path d="m579,417.4s-13.6,-8.86 -23.3,-13.71" fill="none" id="svg_218" stroke="#263238" stroke-linecap="round" stroke-linejoin="round"/>
  </g>
  <g id="freepik--Character--inject-30">
   <path d="m301.52,290.54s6.11,-8.88 6.39,-10.54s0.28,-8.89 1.94,-13.33s5,-7.22 5.83,-11.66s1.67,-5.83 3.89,-3.06s1.39,10.83 0.55,12.5s10.83,-8.89 14.72,-11.94s13.6,-8.88 14.71,-6.39s-1.94,4.72 -3.88,6.11s-9.16,7.5 -9.16,7.5l-0.84,1.94a101,101 0 0 0 10.55,-6.94a26,26 0 0 1 11.66,-5c2.78,-0.27 4.17,2.5 -0.28,5.83s-11.1,7.5 -12.49,8.61s-6.94,5.83 -6.94,5.83s10.55,-3.61 14.44,-5.83s7.22,-3.89 8.33,-1.94s-0.84,3.33 -4.72,5.27s-13.61,7.5 -13.61,7.5s10,-1.39 13.05,-1.95s5.83,1.95 2.5,4.17s-14.44,4.44 -15.27,5s-11.66,9.16 -17.49,10.78a72.07,72.07 0 0 0 -8.33,2.78s-4.44,5 -5.27,5.83s-10.28,-11.07 -10.28,-11.07z" fill="#b8b8b8" id="svg_219" stroke="#263238" stroke-linecap="round" stroke-linejoin="round"/>
   <path d="m320.12,264.45l1.39,6.66s2.5,5.28 0.56,8.61a21,21 0 0 1 -3.89,5" fill="none" id="svg_220" stroke="#263238" stroke-linecap="round" stroke-linejoin="round"/>
   <line fill="none" id="svg_221" stroke="#263238" stroke-linecap="round" stroke-linejoin="round" x1="334.01" x2="341.5" y1="265.84" y2="275.83"/>
   <path d="m291.81,298.87s9.16,-10 10.27,-10.82s12.21,12.21 12.77,13.6s-9.72,11.94 -9.72,11.94s-11.66,-9.16 -13.32,-14.72z" fill="#fff" id="svg_222" stroke="#263238" stroke-linecap="round" stroke-linejoin="round"/>
   <path d="m228.51,271.39s11.1,17.21 13.32,25.54s8.61,32.48 8.61,32.48s14.44,-10.82 20.82,-16.38s17.22,-14.71 19.71,-17.77s6.94,5.28 10.55,8.61s11.66,7.22 8.33,14.44s-25.24,41.52 -41.62,53.45s-18.07,12.35 -24.45,13.73s-12.22,1.67 -20.83,-8.88s-10.27,-58.86 -13.88,-84.4s4.72,-25.54 8.33,-24.71a106.64,106.64 0 0 1 11.11,3.89z" fill="#A155B5" id="svg_223" stroke="#263238" stroke-linecap="round" stroke-linejoin="round"/>
   <path d="m228.94,365.18s7.48,19.45 14.84,20.31c0,0 -12.12,2.3 -16.38,-6.1l1.54,-14.21z" fill="#263238" id="svg_224" stroke="#263238" stroke-linecap="round" stroke-linejoin="round"/>
   <path d="m232.67,322.19c-0.28,17.5 -5.27,49.42 -5.27,57.2s-2,60.24 -2,60.24l-118.33,0s1,-27.48 -0.62,-44.7s-2.32,-123.82 -0.1,-129.37s46.36,-22.49 46.36,-22.49s25.55,0.83 37.76,4.16s21.93,11.67 26.93,15.55s14.72,8.89 16.66,18.05" fill="#A155B5" id="svg_225" stroke="#263238" stroke-linecap="round" stroke-linejoin="round"/>
   <path d="m181.63,426.14a65.83,65.83 0 0 1 -6.8,3.62" fill="none" id="svg_226" stroke="#263238" stroke-linecap="round" stroke-linejoin="round"/>
   <path d="m223.22,386.22s-16.22,21.78 -35.36,35.78" fill="none" id="svg_227" stroke="#263238" stroke-linecap="round" stroke-linejoin="round"/>
   <path d="m204.3,415.69s-18.47,14.07 -28.15,18.91" fill="none" id="svg_228" stroke="#263238" stroke-linecap="round" stroke-linejoin="round"/>
   <path d="m148.27,243.35a152.43,152.43 0 0 0 5.83,26.37c4.44,13.88 6.94,20 6.94,20s10.28,-11.1 13.33,-13s4.72,-3.05 4.72,-3.05l12.77,-1.67s5.83,3.06 9.16,4.45s8.61,5.83 10.55,3.61s-2.5,-6.11 -6.11,-18.88s-8.88,-17.22 -15.27,-25.55s-19.43,-9.71 -22.76,-7.49s-14.43,6.6 -19.16,15.21z" fill="#fff" id="svg_229" stroke="#263238" stroke-linecap="round" stroke-linejoin="round"/>
   <path d="m167.85,200.18s-4.95,-16 1.1,-29.71s22.28,-23.38 43.18,-21.73s33.56,16.51 34.93,29.71s-0.82,19 -1.92,22.28s-7.71,13.2 -7.71,19s-1.1,11.82 -4.67,16.5s-9.63,13.2 -13.75,15.68a21.62,21.62 0 0 1 -12.11,2.47l-2.47,-0.27s-5.78,5.77 -7.15,8.8s-6.6,22.28 -7.43,25s-10.45,-12.38 -12.38,-17.05s-8.25,-20.08 -9.9,-27.51s-2.2,-10.18 -2.2,-10.18s6.33,-17.05 6.6,-22.82s-4.12,-10.17 -4.12,-10.17z" fill="#b8b8b8" id="svg_230" stroke="#263238" stroke-linecap="round" stroke-linejoin="round"/>
   <path d="m211.49,201.93c-0.26,1.83 -1.5,3.16 -2.76,3s-2.07,-1.81 -1.8,-3.64s1.49,-3.16 2.75,-3s2.07,1.81 1.81,3.64z" fill="#263238" id="svg_231"/>
   <path d="m234.41,210.36c-0.26,1.83 -1.5,3.16 -2.76,3s-2.06,-1.81 -1.8,-3.64s1.49,-3.16 2.75,-3s2.07,1.81 1.81,3.64z" fill="#263238" id="svg_232"/>
   <path d="m226.28,221.61s-0.16,6.73 -5.62,4.7" fill="none" id="svg_233" stroke="#263238" stroke-linecap="round" stroke-linejoin="round"/>
   <path d="m217.63,224.11s0.28,-0.55 -1.93,-0.28s-3,-1.92 -0.82,-4.67" fill="none" id="svg_234" stroke="#263238" stroke-linecap="round" stroke-linejoin="round"/>
   <path d="m206.25,228.51s7.38,6.56 15.1,6.07" fill="none" id="svg_235" stroke="#263238" stroke-linecap="round" stroke-linejoin="round"/>
   <path d="m231.37,203.55s-6.73,3.44 -6.57,10.34" fill="none" id="svg_236" stroke="#263238" stroke-linecap="round" stroke-linejoin="round"/>
   <path d="m220.7,193.86s-5.92,-6.08 -12.81,-4.77" fill="none" id="svg_237" stroke="#263238" stroke-linecap="round" stroke-linejoin="round"/>
   <path d="m235.64,201.58s5.58,-0.5 6.9,2.95" fill="none" id="svg_238" stroke="#263238" stroke-linecap="round" stroke-linejoin="round"/>
   <ellipse cx="209.69" cy="202.97" fill="none" id="svg_239" rx="12.64" ry="12.4" stroke="#263238" stroke-linecap="round" stroke-linejoin="round"/>
   <ellipse cx="236.98" cy="214.19" fill="none" id="svg_240" rx="11.36" ry="11.14" stroke="#263238" stroke-linecap="round" stroke-linejoin="round"/>
   <line fill="none" id="svg_241" stroke="#263238" stroke-linecap="round" stroke-linejoin="round" x1="199.84" x2="178.49" y1="195.17" y2="190.9"/>
   <path d="m222.34,203s5.3,-0.33 6.4,3.2" fill="none" id="svg_242" stroke="#263238" stroke-linecap="round" stroke-linejoin="round"/>
   <line fill="none" id="svg_243" stroke="#263238" stroke-linecap="round" stroke-linejoin="round" x1="248.28" x2="239.09" y1="216.35" y2="213.23"/>
   <path d="m207.72,162.66c18.77,-5.75 31.25,3.14 39.4,16.4l-0.06,-0.61c-1.37,-13.2 -14,-28 -34.93,-29.71s-37.13,8 -43.18,21.73s-1.1,29.71 -1.1,29.71a16.37,16.37 0 0 1 3.76,6.76c3.21,-1.51 6.09,-4.78 6.88,-12.75c0,0 6.74,1.8 7.89,-0.17s0.16,-0.49 3.12,-6.57s10.18,-4.92 11.65,-9.69s-13.79,-8.86 6.57,-15.1z" fill="#263238" id="svg_244" stroke="#263238" stroke-linecap="round" stroke-linejoin="round"/>
   <path d="m182.15,196.6s-2.75,-10.17 -9.35,-6.87s-7.43,10.72 -4.4,17.88s6,11 10.45,8.8" fill="#b8b8b8" id="svg_245" stroke="#263238" stroke-linecap="round" stroke-linejoin="round"/>
   <path d="m204.43,254.09s-4.79,-0.08 -9.73,-5.84a79.82,79.82 0 0 1 -8.86,-13.4s-0.62,15 2.47,22.46s8,7.58 8,7.58l1,-2l7.12,-8.8z" fill="#263238" id="svg_246" stroke="#263238" stroke-linecap="round" stroke-linejoin="round"/>
   <path d="m171.87,324.14l13.33,-12.77s11.1,-18.6 12.49,-21.1s6.94,-9.72 8.33,-14.72s3.61,-3.88 4.44,-0.83s-0.28,7.77 -0.28,7.77s8.33,-5.55 12.5,-8.05s10.82,-2.5 12.77,-2.5s4.16,0.84 3.33,2.22s-5.55,1.12 -8.05,2.78s-7.22,3.33 -8.89,4.44s-7.21,6.67 -7.21,6.67s14.43,-6.94 16.38,-7.78s9.16,-1.66 13,-1.94s3.34,3.05 0.84,4.16s-9.44,3.61 -11.39,3.89s-12.46,8.33 -12.46,8.33s11.66,-3.33 13.88,-3.61s11.39,-1.39 12.5,0s1.11,3.33 -2.5,4.44s-10.83,2.5 -10.83,2.5l-10.27,4.17l10.27,0c3.05,0 10,-1.12 10.27,1.11s-0.55,2.77 -2.5,3.33s-19.15,3.05 -20.26,3.33s-7.78,10.83 -15.55,15.55a76.28,76.28 0 0 1 -16.66,7.21l-10.27,7.5s-3.6,-14.16 -7.21,-16.1z" fill="#b8b8b8" id="svg_247" stroke="#263238" stroke-linecap="round" stroke-linejoin="round"/>
   <path d="m210.18,282.49s-7.77,5.56 -11.66,10" fill="none" id="svg_248" stroke="#263238" stroke-linecap="round" stroke-linejoin="round"/>
   <path d="m159.33,328.37l12.88,-7.37s2.28,0.2 4.81,3.74s4.71,11.9 5.19,14.91s-10.43,8.69 -10.43,8.69s-4.92,-13.29 -12.45,-19.97z" fill="#fff" id="svg_249" stroke="#263238" stroke-linecap="round" stroke-linejoin="round"/>
   <path d="m129.39,254.45s-30.81,9.72 -33.31,14.16s-4.44,43.59 -5.56,71.91s-0.83,37.76 2.48,42.48s15.27,14.15 25,10s27.49,-20.54 36.09,-26.65s19.16,-14.44 19.44,-20.55s-3.61,-13.32 -6.11,-16.65s-5.83,-5.56 -10,-4.72s-27.2,11.66 -27.2,11.66l-0.22,-39.44" fill="#A155B5" id="svg_250" stroke="#263238" stroke-linecap="round" stroke-linejoin="round"/>
   <line fill="none" id="svg_251" stroke="#263238" stroke-linecap="round" stroke-linejoin="round" x1="109.97" x2="105.24" y1="345.3" y2="347.46"/>
   <line fill="none" id="svg_252" stroke="#263238" stroke-linecap="round" stroke-linejoin="round" x1="130.23" x2="113.55" y1="336.08" y2="343.67"/>
   <path d="m247.37,338.58a34.94,34.94 0 0 0 -1.09,5.27" fill="none" id="svg_253" stroke="#263238" stroke-linecap="round" stroke-linejoin="round"/>
   <path d="m250.44,329.41s-1,2.52 -2,5.68" fill="none" id="svg_254" stroke="#263238" stroke-linecap="round" stroke-linejoin="round"/>
  </g>
  <g id="freepik--Table--inject-30">
   <line fill="none" id="svg_255" stroke="#263238" stroke-miterlimit="10" x1="52.08" x2="699.21" y1="439.63" y2="439.63"/>
  </g>
 </g>

</svg>