<svg xmlns="http://www.w3.org/2000/svg" viewBox="0 0 750 500"><g id="freepik--background-simple--inject-30"><path d="M74.1,440H583.69c29.57-10.46,55.49-31.32,60-109.37,0,0,9-178-127.6-227s-205.43-13-248.87,33-57.92,76-107.69,82-95.93,16-119.46,83C19.79,359.45,39.28,406.86,74.1,440Z" style="fill:#A155B5"></path><path d="M74.1,440H583.69c29.57-10.46,55.49-31.32,60-109.37,0,0,9-178-127.6-227s-205.43-13-248.87,33-57.92,76-107.69,82-95.93,16-119.46,83C19.79,359.45,39.28,406.86,74.1,440Z" style="fill:#fff;opacity:0.7000000000000001"></path></g><g id="freepik--Wall--inject-30"><rect x="126.22" y="242.5" width="49.47" height="20.03" style="opacity:0.2"></rect><rect x="297.19" y="187.47" width="49.47" height="20.03" style="opacity:0.2"></rect><rect x="450.49" y="187.47" width="49.47" height="20.03" style="opacity:0.2"></rect><rect x="538.93" y="224.81" width="49.47" height="20.03" style="opacity:0.2"></rect><rect x="270.09" y="215.15" width="49.47" height="20.03" style="opacity:0.1"></rect><rect x="184.25" y="187.47" width="49.47" height="20.03" style="opacity:0.2"></rect><rect x="157.16" y="215.15" width="49.47" height="20.03" style="opacity:0.1"></rect><rect x="213.7" y="215.15" width="49.47" height="20.03" style="opacity:0.1"></rect><rect x="68.62" y="260.99" width="49.47" height="20.03" style="opacity:0.2"></rect><rect x="44.23" y="215.15" width="49.47" height="20.03" style="opacity:0.1"></rect><rect x="100.77" y="215.15" width="49.47" height="20.03" style="opacity:0.1"></rect><rect x="297.19" y="74.46" width="49.47" height="20.03" style="opacity:0.2"></rect><rect x="270.09" y="102.14" width="49.47" height="20.03" style="opacity:0.1"></rect><rect x="303.36" y="370" width="49.47" height="20.03" style="opacity:0.2"></rect><rect x="276.26" y="397.68" width="49.47" height="20.03" style="opacity:0.1"></rect><rect x="545.81" y="74.46" width="49.47" height="20.03" style="opacity:0.2"></rect><rect x="518.72" y="102.14" width="49.47" height="20.03" style="opacity:0.1"></rect><rect x="563.64" y="248.63" width="49.47" height="20.03" style="opacity:0.2"></rect><rect x="536.55" y="276.31" width="49.47" height="20.03" style="opacity:0.1"></rect><rect x="486.84" y="317.88" width="49.47" height="20.03" style="opacity:0.2"></rect><rect x="459.75" y="345.57" width="49.47" height="20.03" style="opacity:0.1"></rect><rect x="411.41" y="170.46" width="49.47" height="20.03" style="opacity:0.2"></rect><rect x="384.32" y="198.14" width="49.47" height="20.03" style="opacity:0.1"></rect><rect x="198.01" y="74.46" width="49.47" height="20.03" style="opacity:0.2"></rect><rect x="213.7" y="157.81" width="49.47" height="20.03" style="opacity:0.1"></rect><rect x="592.9" y="157.81" width="49.47" height="20.03" style="opacity:0.1"></rect><rect x="632.05" y="278.78" width="49.47" height="20.03" style="opacity:0.1"></rect><rect x="537.43" y="157.81" width="49.47" height="20.03" style="opacity:0.1"></rect><rect x="567.53" y="202.38" width="49.47" height="20.03" style="opacity:0.1"></rect><rect x="512.74" y="202.38" width="49.47" height="20.03" style="opacity:0.1"></rect><rect x="354.59" y="289.67" width="49.47" height="20.03" style="opacity:0.2"></rect><rect x="354.59" y="343.72" width="49.47" height="20.03" style="opacity:0.2"></rect><rect x="126.22" y="344.7" width="49.47" height="20.03" style="opacity:0.2"></rect><rect x="439.57" y="317.35" width="49.47" height="20.03" style="opacity:0.1"></rect><rect x="412.57" y="343.54" width="49.47" height="20.03" style="opacity:0.1"></rect><rect x="582.6" y="317.35" width="49.47" height="20.03" style="opacity:0.1"></rect><rect x="555.61" y="343.54" width="49.47" height="20.03" style="opacity:0.1"></rect><rect x="297.19" y="289.67" width="49.47" height="20.03" style="opacity:0.2"></rect><rect x="326.63" y="317.35" width="49.47" height="20.03" style="opacity:0.1"></rect><rect x="303.05" y="374.35" width="49.47" height="20.03" style="opacity:0.1"></rect><rect x="373.8" y="400.88" width="49.47" height="20.03" style="opacity:0.1"></rect><rect x="187.09" y="400.88" width="49.47" height="20.03" style="opacity:0.1"></rect><rect x="46.02" y="400.88" width="49.47" height="20.03" style="opacity:0.1"></rect><rect x="225.87" y="249.54" width="49.47" height="20.03" style="opacity:0.1"></rect><rect x="282.41" y="249.54" width="49.47" height="20.03" style="opacity:0.1"></rect><rect x="439.65" y="249.54" width="49.47" height="20.03" style="opacity:0.1"></rect><rect x="184.25" y="289.67" width="49.47" height="20.03" style="opacity:0.2"></rect><rect x="238.72" y="346.83" width="49.47" height="20.03" style="opacity:0.1"></rect><rect x="71.32" y="289.67" width="49.47" height="20.03" style="opacity:0.2"></rect><rect x="68.62" y="363.19" width="49.47" height="20.03" style="opacity:0.2"></rect><rect x="44.23" y="317.35" width="49.47" height="20.03" style="opacity:0.1"></rect><rect x="100.77" y="317.35" width="49.47" height="20.03" style="opacity:0.1"></rect></g><g id="freepik--Board--inject-30"><rect x="249.17" y="101.09" width="291.28" height="295.87" style="fill:#fff;stroke:#263238;stroke-linecap:round;stroke-linejoin:round"></rect><rect x="255.48" y="107.5" width="278.66" height="283.05" style="fill:#b8b8b8;stroke:#263238;stroke-linecap:round;stroke-linejoin:round"></rect></g><g id="freepik--Lamp--inject-30"><circle cx="620.51" cy="104.82" r="9.92" transform="matrix(0.99, -0.13, 0.13, 0.99, -8.25, 78.84)" style="fill:#fff;stroke:#263238;stroke-miterlimit:10"></circle><polygon points="664.73 106.82 575.51 106.82 606.74 69.53 633.51 69.53 664.73 106.82" style="fill:#263238"></polygon><rect x="614.23" y="62.32" width="11.78" height="11.78" style="fill:#263238"></rect><line x1="620.6" y1="64.53" x2="620.6" y2="30.46" style="fill:none;stroke:#263238;stroke-miterlimit:10"></line></g><g id="freepik--Storyboard--inject-30"><rect x="348.04" y="124.27" width="98.71" height="73.31" style="fill:#fff;stroke:#263238;stroke-linecap:round;stroke-linejoin:round"></rect><path d="M397,152.27s-1.73-12.89-3.3-13.83-8.33-.63-8.8,2.36,1.73,14.3,1.73,14.3" style="fill:none;stroke:#263238;stroke-linecap:round;stroke-linejoin:round"></path><path d="M377.08,176.48s-1.26-11.79.63-14.3,8.33-5.35,8.33-5.35a2.89,2.89,0,0,1,2.36-3.77c3.3-.79,9.27-1.26,10.06.79s.78,1.1.78,1.1,7.55,2.51,8.33,5.34,2.83,16,2.83,16" style="fill:none;stroke:#263238;stroke-linecap:round;stroke-linejoin:round"></path><line x1="400.5" y1="158.25" x2="393.43" y2="170.51" style="fill:none;stroke:#263238;stroke-linecap:round;stroke-linejoin:round"></line><line x1="394.84" y1="163.75" x2="389.18" y2="172.71" style="fill:none;stroke:#263238;stroke-linecap:round;stroke-linejoin:round"></line><path d="M387.29,156.83s8.18-2,10.54-1.73" style="fill:none;stroke:#263238;stroke-linecap:round;stroke-linejoin:round"></path><polygon points="419.36 158.88 414.8 161.55 410.25 152.9 425.81 153.22 422.98 155.89 431.47 158.25 424.08 162.81 419.36 158.88" style="fill:#263238;stroke:#263238;stroke-linecap:round;stroke-linejoin:round"></polygon><rect x="360.05" y="130.95" width="74.63" height="49.54" style="fill:none;stroke:#263238;stroke-linecap:round;stroke-linejoin:round"></rect><line x1="424.3" y1="184.45" x2="432.29" y2="184.45" style="fill:none;stroke:#263238;stroke-linecap:round;stroke-linejoin:round"></line><line x1="382.09" y1="184.45" x2="421.23" y2="184.45" style="fill:none;stroke:#263238;stroke-linecap:round;stroke-linejoin:round"></line><line x1="360.54" y1="184.45" x2="379.74" y2="184.45" style="fill:none;stroke:#263238;stroke-linecap:round;stroke-linejoin:round"></line><line x1="414.38" y1="188.33" x2="432.29" y2="188.33" style="fill:none;stroke:#263238;stroke-linecap:round;stroke-linejoin:round"></line><line x1="395.43" y1="188.33" x2="412.21" y2="188.33" style="fill:none;stroke:#263238;stroke-linecap:round;stroke-linejoin:round"></line><line x1="371.08" y1="188.33" x2="393.09" y2="188.33" style="fill:none;stroke:#263238;stroke-linecap:round;stroke-linejoin:round"></line><line x1="360.54" y1="188.33" x2="369.46" y2="188.33" style="fill:none;stroke:#263238;stroke-linecap:round;stroke-linejoin:round"></line><line x1="420.51" y1="192.21" x2="432.29" y2="192.21" style="fill:none;stroke:#263238;stroke-linecap:round;stroke-linejoin:round"></line><line x1="377.04" y1="192.21" x2="417.26" y2="192.21" style="fill:none;stroke:#263238;stroke-linecap:round;stroke-linejoin:round"></line><line x1="360.54" y1="192.21" x2="374.69" y2="192.21" style="fill:none;stroke:#263238;stroke-linecap:round;stroke-linejoin:round"></line><circle cx="360.88" cy="134.52" r="8.05" style="fill:#fff;stroke:#263238;stroke-linecap:round;stroke-linejoin:round"></circle><path d="M360,139v-7.44l-.29.14-.34.14-.34.15a3.24,3.24,0,0,0-.31.13v-1.43l.36-.19.49-.27.5-.3a3.25,3.25,0,0,0,.35-.28h1.51V139Z" style="fill:#263238"></path><circle cx="401.56" cy="123.91" r="3.16" style="fill:#A155B5;stroke:#263238;stroke-linecap:round;stroke-linejoin:round"></circle><circle cx="403.23" cy="122.69" r="3.16" style="fill:#A155B5;stroke:#263238;stroke-linecap:round;stroke-linejoin:round"></circle><line x1="398.85" y1="126.3" x2="397.78" y2="127.22" style="fill:none;stroke:#263238;stroke-linecap:round;stroke-linejoin:round"></line><rect x="293.05" y="207.36" width="98.71" height="73.31" style="fill:#fff;stroke:#263238;stroke-linecap:round;stroke-linejoin:round"></rect><polygon points="366.03 237.37 361.47 240.05 356.92 231.4 372.48 231.71 369.65 234.39 378.14 236.74 370.75 241.3 366.03 237.37" style="fill:#263238;stroke:#263238;stroke-linecap:round;stroke-linejoin:round"></polygon><path d="M345.75,224a6.28,6.28,0,0,0-2.35-4.87c-2.52-2-7.55-2-9.91.78s-2.35,3.93-2.2,5.51,1.89,12.26,1.89,12.26l14-4.09-.63-3.77s1.1-.63.79-3.46S345.75,224,345.75,224Z" style="fill:none;stroke:#263238;stroke-linecap:round;stroke-linejoin:round"></path><polyline points="333.65 227.16 333.34 233.13 337.58 232.5" style="fill:none;stroke:#263238;stroke-linecap:round;stroke-linejoin:round"></polyline><path d="M337.74,223.38a2.49,2.49,0,0,0-2.68,1.42" style="fill:none;stroke:#263238;stroke-linecap:round;stroke-linejoin:round"></path><ellipse cx="337.5" cy="226.61" rx="0.55" ry="0.86" style="fill:#263238"></ellipse><path d="M335.38,219.77c1.57-.79,4.72-2.2,5.5-1.1s-2.2,1.73-1.41,3,2.35.79,3,1.73-.47,3,.95,3.46.63-.63,1.88-1.73.84-.26,1.18-1a.81.81,0,0,0-.71-.15,6.28,6.28,0,0,0-2.35-4.87c-2.52-2-7.55-2-9.91.78C333.49,219.92,333.81,220.55,335.38,219.77Z" style="fill:#263238"></path><polygon points="333.18 237.69 332.08 241.15 351.57 236.12 350.63 233.91 347.17 233.6 333.18 237.69" style="fill:none;stroke:#263238;stroke-linecap:round;stroke-linejoin:round"></polygon><polyline points="334.75 241.15 324.22 250.11 322.33 262.21" style="fill:none;stroke:#263238;stroke-linecap:round;stroke-linejoin:round"></polyline><path d="M350.31,237.06s11.48,9.9,11.79,11.47,3.3,14.31,3.3,14.31" style="fill:none;stroke:#263238;stroke-linecap:round;stroke-linejoin:round"></path><path d="M352,246.65s-4.24,17.13-4.56,17.6" style="fill:none;stroke:#263238;stroke-linecap:round;stroke-linejoin:round"></path><line x1="348.58" y1="255.29" x2="344.97" y2="261.58" style="fill:none;stroke:#263238;stroke-linecap:round;stroke-linejoin:round"></line><path d="M328.15,249.79s6.6,6.76,6.91,12.26" style="fill:none;stroke:#263238;stroke-linecap:round;stroke-linejoin:round"></path><path d="M325,226.06s-12.1.47-12.1,4.08,11.32,3.77,11.32,3.77" style="fill:none;stroke:#263238;stroke-linecap:round;stroke-linejoin:round"></path><polygon points="324.85 231.4 324.22 237.22 328.78 234.23 324.85 231.4" style="fill:#263238;stroke:#263238;stroke-linecap:round;stroke-linejoin:round"></polygon><rect x="306.76" y="214.37" width="74.63" height="49.54" style="fill:none;stroke:#263238;stroke-linecap:round;stroke-linejoin:round"></rect><line x1="371.7" y1="268.41" x2="379.69" y2="268.41" style="fill:none;stroke:#263238;stroke-linecap:round;stroke-linejoin:round"></line><line x1="329.49" y1="268.41" x2="368.64" y2="268.41" style="fill:none;stroke:#263238;stroke-linecap:round;stroke-linejoin:round"></line><line x1="307.95" y1="268.41" x2="327.15" y2="268.41" style="fill:none;stroke:#263238;stroke-linecap:round;stroke-linejoin:round"></line><line x1="361.78" y1="272.28" x2="379.69" y2="272.28" style="fill:none;stroke:#263238;stroke-linecap:round;stroke-linejoin:round"></line><line x1="342.84" y1="272.28" x2="359.62" y2="272.28" style="fill:none;stroke:#263238;stroke-linecap:round;stroke-linejoin:round"></line><line x1="318.49" y1="272.28" x2="340.5" y2="272.28" style="fill:none;stroke:#263238;stroke-linecap:round;stroke-linejoin:round"></line><line x1="307.95" y1="272.28" x2="316.87" y2="272.28" style="fill:none;stroke:#263238;stroke-linecap:round;stroke-linejoin:round"></line><line x1="367.91" y1="276.16" x2="379.69" y2="276.16" style="fill:none;stroke:#263238;stroke-linecap:round;stroke-linejoin:round"></line><line x1="324.44" y1="276.16" x2="364.67" y2="276.16" style="fill:none;stroke:#263238;stroke-linecap:round;stroke-linejoin:round"></line><line x1="307.95" y1="276.16" x2="322.1" y2="276.16" style="fill:none;stroke:#263238;stroke-linecap:round;stroke-linejoin:round"></line><circle cx="307.48" cy="217.27" r="8.05" transform="translate(-32.03 54.54) rotate(-9.64)" style="fill:#fff;stroke:#263238;stroke-linecap:round;stroke-linejoin:round"></circle><path d="M305.54,221.7v-1.36l2.24-3.44.48-.74a4.55,4.55,0,0,0,.37-.73,2.19,2.19,0,0,0,.14-.77.92.92,0,0,0-.16-.6.54.54,0,0,0-.44-.2.65.65,0,0,0-.48.17.88.88,0,0,0-.24.47,3.1,3.1,0,0,0-.06.64v.46h-1.87v-.49a4,4,0,0,1,.26-1.48,2.19,2.19,0,0,1,.84-1,2.76,2.76,0,0,1,1.52-.38,2.51,2.51,0,0,1,1.89.66,2.46,2.46,0,0,1,.65,1.81,3,3,0,0,1-.18,1.05,4.39,4.39,0,0,1-.48.94c-.19.31-.4.62-.63,1l-1.7,2.55h2.73v1.51Z" style="fill:#263238"></path><path d="M348.94,208.65a3.16,3.16,0,1,0-3.16,3.17A3.16,3.16,0,0,0,348.94,208.65Z" style="fill:#A155B5;stroke:#263238;stroke-linecap:round;stroke-linejoin:round"></path><circle cx="347.46" cy="207.43" r="3.16" style="fill:#A155B5;stroke:#263238;stroke-linecap:round;stroke-linejoin:round"></circle><line x1="343.07" y1="211.05" x2="342" y2="211.96" style="fill:none;stroke:#263238;stroke-linecap:round;stroke-linejoin:round"></line><rect x="404.62" y="207.36" width="98.71" height="73.31" style="fill:#fff;stroke:#263238;stroke-linecap:round;stroke-linejoin:round"></rect><path d="M472.07,241.47s.57-.71,1.43-1.85a9.14,9.14,0,0,0,.86-8c-1.29-3.57-4.28-.57-4.28-.57a35.5,35.5,0,0,0-.43-3.71c-.33-2.29-1.57-9.37-4.79-13.69H437.64c-2.13,1.37-4.12,2.93-4.37,4.13-.57,2.71.14,21.54.57,23.54s2,5.42,2.43,8.84,1.71,12,1.71,12,5.7-3.57,20.68-6.85,20-3.57,20-3.57l-4.14-.85Z" style="fill:none;stroke:#263238;stroke-linecap:round;stroke-linejoin:round"></path><path d="M464.86,213.66h-5.19c1.89,3.32-1.15,6.13-1,8.84s4.28,3.85,4.71,4.85-.14,8.41,0,9.41,2.28,0,3.43,0,1-.71,1.28-3a3,3,0,0,1,2-2.71,35.5,35.5,0,0,0-.43-3.71C469.32,225.06,468.08,218,464.86,213.66Z" style="fill:#263238;stroke:#263238;stroke-linecap:round;stroke-linejoin:round"></path><path d="M437.65,213.66c-.66.42-1.31.86-1.89,1.31l.08.11c2,2.56,6.84,2.71,13.11-1.42Z" style="fill:#263238;stroke:#263238;stroke-linecap:round;stroke-linejoin:round"></path><path d="M470.08,231.06l.42-.37A3.88,3.88,0,0,0,470.08,231.06Z" style="fill:none;stroke:#263238;stroke-linecap:round;stroke-linejoin:round"></path><path d="M445.68,231.34s1.86-2.71,3.43-1a6.28,6.28,0,0,1,1.71,3.28" style="fill:none;stroke:#263238;stroke-linecap:round;stroke-linejoin:round"></path><path d="M451,233.48c0,1.34-.57,2.43-1.28,2.43s-1.29-1.09-1.29-2.43.58-2.42,1.29-2.42S451,232.14,451,233.48Z" style="fill:#263238"></path><path d="M438.55,232.34s-.71,16.26-.71,17.26,10.55-2.85,10.55-2.85" style="fill:none;stroke:#263238;stroke-linecap:round;stroke-linejoin:round"></path><path d="M441.83,249.32l.14,4.28,4.14-.29s-3.28.57-3.42,1.57l-.15,1,.57,2.57" style="fill:none;stroke:#263238;stroke-linecap:round;stroke-linejoin:round"></path><path d="M447.25,238.62a39.88,39.88,0,0,0,6.14,1.71" style="fill:none;stroke:#263238;stroke-linecap:round;stroke-linejoin:round"></path><path d="M443.68,226.49s3.43-2,5.71-2a5.66,5.66,0,0,1,3.57,1.14" style="fill:none;stroke:#263238;stroke-linecap:round;stroke-linejoin:round"></path><path d="M434.27,220.93s-1,6.84,0,7.7,2.85-.28,3.42,1l.57,1.28" style="fill:none;stroke:#263238;stroke-linecap:round;stroke-linejoin:round"></path><path d="M456.1,263s16.83-5,27.39-7" style="fill:none;stroke:#263238;stroke-linecap:round;stroke-linejoin:round"></path><rect x="416.77" y="213.98" width="74.63" height="49.54" style="fill:none;stroke:#263238;stroke-linecap:round;stroke-linejoin:round"></rect><line x1="481.18" y1="268.41" x2="489.17" y2="268.41" style="fill:none;stroke:#263238;stroke-linecap:round;stroke-linejoin:round"></line><line x1="438.97" y1="268.41" x2="478.11" y2="268.41" style="fill:none;stroke:#263238;stroke-linecap:round;stroke-linejoin:round"></line><line x1="417.43" y1="268.41" x2="436.62" y2="268.41" style="fill:none;stroke:#263238;stroke-linecap:round;stroke-linejoin:round"></line><line x1="471.26" y1="272.28" x2="489.17" y2="272.28" style="fill:none;stroke:#263238;stroke-linecap:round;stroke-linejoin:round"></line><line x1="452.32" y1="272.28" x2="469.09" y2="272.28" style="fill:none;stroke:#263238;stroke-linecap:round;stroke-linejoin:round"></line><line x1="427.97" y1="272.28" x2="449.97" y2="272.28" style="fill:none;stroke:#263238;stroke-linecap:round;stroke-linejoin:round"></line><line x1="417.43" y1="272.28" x2="426.34" y2="272.28" style="fill:none;stroke:#263238;stroke-linecap:round;stroke-linejoin:round"></line><line x1="477.39" y1="276.16" x2="489.17" y2="276.16" style="fill:none;stroke:#263238;stroke-linecap:round;stroke-linejoin:round"></line><line x1="433.92" y1="276.16" x2="474.14" y2="276.16" style="fill:none;stroke:#263238;stroke-linecap:round;stroke-linejoin:round"></line><line x1="417.43" y1="276.16" x2="431.57" y2="276.16" style="fill:none;stroke:#263238;stroke-linecap:round;stroke-linejoin:round"></line><circle cx="421.06" cy="217.27" r="8.05" transform="translate(-29.43 70.44) rotate(-9.24)" style="fill:#fff;stroke:#263238;stroke-linecap:round;stroke-linejoin:round"></circle><path d="M421.46,221.87a2.74,2.74,0,0,1-1.54-.37,2,2,0,0,1-.8-1,4.73,4.73,0,0,1-.23-1.53v-.34h1.93v.34a3.89,3.89,0,0,0,.05.75.76.76,0,0,0,.21.42.6.6,0,0,0,.42.13.48.48,0,0,0,.39-.14.74.74,0,0,0,.18-.41,4.44,4.44,0,0,0,.05-.69,2.31,2.31,0,0,0-.19-1.06.82.82,0,0,0-.79-.37h-.36v-1.33h.31a.88.88,0,0,0,.82-.34,2,2,0,0,0,.21-1A2.06,2.06,0,0,0,422,214a.55.55,0,0,0-.54-.28.47.47,0,0,0-.5.32,2.39,2.39,0,0,0-.12.83v.49h-1.93v-.57a3.12,3.12,0,0,1,.3-1.43,2.13,2.13,0,0,1,.88-.88,2.92,2.92,0,0,1,1.37-.3,3.06,3.06,0,0,1,1.38.29,2,2,0,0,1,.89.85,2.78,2.78,0,0,1,.31,1.39,2.62,2.62,0,0,1-.33,1.37,1.35,1.35,0,0,1-.81.68,1.55,1.55,0,0,1,.58.37,1.67,1.67,0,0,1,.41.69A3.39,3.39,0,0,1,424,219a4.39,4.39,0,0,1-.24,1.51,2.12,2.12,0,0,1-.82,1A2.69,2.69,0,0,1,421.46,221.87Z" style="fill:#263238"></path><circle cx="453.01" cy="206.76" r="3.16" style="fill:#A155B5;stroke:#263238;stroke-linecap:round;stroke-linejoin:round"></circle><circle cx="454.69" cy="205.54" r="3.16" style="fill:#A155B5;stroke:#263238;stroke-linecap:round;stroke-linejoin:round"></circle><line x1="450.3" y1="209.15" x2="449.23" y2="210.07" style="fill:none;stroke:#263238;stroke-linecap:round;stroke-linejoin:round"></line><rect x="293.05" y="292.03" width="98.71" height="73.31" style="fill:#fff;stroke:#263238;stroke-linecap:round;stroke-linejoin:round"></rect><path d="M379.13,302.9s-17.28,5.53-18.69,6.66-14.87,8.35-15.72,10.2-7.08,7.64-8.36,9.2.43,3.82,2.27,4.81,7.64,6.8,7.64,6.8,0,2.41,3,4,4.1,2,5.38.85a11.65,11.65,0,0,0,2.12-2.69,7.46,7.46,0,0,1,3.54-4.68c2.84-1.41,4.11-1.84,5.24-4.81s3.12-9.77,3.12-9.77l12-3.54" style="fill:none;stroke:#263238;stroke-linecap:round;stroke-linejoin:round"></path><path d="M356.75,342.7s3.54.56,4.82-.57.85-5,.85-5" style="fill:none;stroke:#263238;stroke-linecap:round;stroke-linejoin:round"></path><path d="M362.28,341.14s2.26,1.13,3.68-2a6.63,6.63,0,0,0-.43-6" style="fill:none;stroke:#263238;stroke-linecap:round;stroke-linejoin:round"></path><path d="M366.81,337.74s3.25-2,3.25-4.67-3-4.53-3-4.53,5.1.28,6.09-1.56a38.1,38.1,0,0,0,2-4.82" style="fill:none;stroke:#263238;stroke-linecap:round;stroke-linejoin:round"></path><path d="M349.25,344.54s-2.41-2.69-1.13-4.53,3-4,3.68-6.38" style="fill:none;stroke:#263238;stroke-linecap:round;stroke-linejoin:round"></path><path d="M354.06,333.92s-4.81-2-7.36-1.14" style="fill:none;stroke:#263238;stroke-linecap:round;stroke-linejoin:round"></path><path d="M345.28,329.53s7.79,1.84,10.34,4" style="fill:none;stroke:#263238;stroke-linecap:round;stroke-linejoin:round"></path><path d="M362,304.6s-9.63,6.66-15.43,10.62" style="fill:none;stroke:#263238;stroke-linecap:round;stroke-linejoin:round"></path><path d="M349,310.69s-3.25,3.12-6.23,6.66" style="fill:none;stroke:#263238;stroke-linecap:round;stroke-linejoin:round"></path><path d="M318.66,299.22s-4.53,7.37-4.25,8.5a9.24,9.24,0,0,0,2,2.83l-4.24,16,6.94.85s-3.12,3.68-2.7,4.53,1,.71,1.56,1.14c0,0-2.26,1.27-2.26,2.4s2.83,2.13,3.25,2.13,1.42,8.35,1.56,9.2a12.21,12.21,0,0,0,.43,1.7" style="fill:none;stroke:#263238;stroke-linecap:round;stroke-linejoin:round"></path><path d="M318.66,309s.71-5.24,7.36-5.66" style="fill:none;stroke:#263238;stroke-linecap:round;stroke-linejoin:round"></path><path d="M319.93,311.54a6.25,6.25,0,0,1,5.81-1.84" style="fill:none;stroke:#263238;stroke-linecap:round;stroke-linejoin:round"></path><path d="M320.22,312.67s1.7,2.27,5.95,2.41" style="fill:none;stroke:#263238;stroke-linecap:round;stroke-linejoin:round"></path><path d="M336.67,300s-7.67,1.47-5.41,3.31,6.09,2.83,6.52,4a31.55,31.55,0,0,1,.56,9.07c-.28,3.4.71,4.1,1.85,3.54s1.27-9.07,4.95-12,5.52,2.55,5.52,3,7.85-10.16,7.85-10.16" style="fill:#263238;stroke:#263238;stroke-linecap:round;stroke-linejoin:round"></path><line x1="331.83" y1="348.79" x2="344.72" y2="342.41" style="fill:none;stroke:#263238;stroke-linecap:round;stroke-linejoin:round"></line><rect x="307.01" y="299.37" width="74.63" height="49.54" style="fill:none;stroke:#263238;stroke-linecap:round;stroke-linejoin:round"></rect><line x1="371.7" y1="353.31" x2="379.69" y2="353.31" style="fill:none;stroke:#263238;stroke-linecap:round;stroke-linejoin:round"></line><line x1="329.49" y1="353.31" x2="368.64" y2="353.31" style="fill:none;stroke:#263238;stroke-linecap:round;stroke-linejoin:round"></line><line x1="307.95" y1="353.31" x2="327.15" y2="353.31" style="fill:none;stroke:#263238;stroke-linecap:round;stroke-linejoin:round"></line><line x1="361.78" y1="357.18" x2="379.69" y2="357.18" style="fill:none;stroke:#263238;stroke-linecap:round;stroke-linejoin:round"></line><line x1="342.84" y1="357.18" x2="359.62" y2="357.18" style="fill:none;stroke:#263238;stroke-linecap:round;stroke-linejoin:round"></line><line x1="318.49" y1="357.18" x2="340.5" y2="357.18" style="fill:none;stroke:#263238;stroke-linecap:round;stroke-linejoin:round"></line><line x1="307.95" y1="357.18" x2="316.87" y2="357.18" style="fill:none;stroke:#263238;stroke-linecap:round;stroke-linejoin:round"></line><line x1="367.91" y1="361.06" x2="379.69" y2="361.06" style="fill:none;stroke:#263238;stroke-linecap:round;stroke-linejoin:round"></line><line x1="324.44" y1="361.06" x2="364.67" y2="361.06" style="fill:none;stroke:#263238;stroke-linecap:round;stroke-linejoin:round"></line><line x1="307.95" y1="361.06" x2="322.1" y2="361.06" style="fill:none;stroke:#263238;stroke-linecap:round;stroke-linejoin:round"></line><circle cx="307.48" cy="302.63" r="8.05" transform="translate(-95.83 455.82) rotate(-65.34)" style="fill:#fff;stroke:#263238;stroke-linecap:round;stroke-linejoin:round"></circle><path d="M308,307.06V305h-2.88v-1.41l2.44-5.83h2.24v5.81h.86V305h-.86v2.11Zm-1.41-3.54H308v-3.89Z" style="fill:#263238"></path><circle cx="346.73" cy="292.45" r="3.16" style="fill:#A155B5;stroke:#263238;stroke-linecap:round;stroke-linejoin:round"></circle><circle cx="348.4" cy="291.23" r="3.16" style="fill:#A155B5;stroke:#263238;stroke-linecap:round;stroke-linejoin:round"></circle><line x1="344.02" y1="294.84" x2="342.95" y2="295.75" style="fill:none;stroke:#263238;stroke-linecap:round;stroke-linejoin:round"></line><rect x="406.2" y="292.03" width="98.71" height="73.31" style="fill:#fff;stroke:#263238;stroke-linecap:round;stroke-linejoin:round"></rect><path d="M428.67,340.08l-5.23,9.08H429l4.41-7,1.41.63,2.21-3.62.47-1.73,2-2.2-2.4,14h36.67l-2-8.76a29.89,29.89,0,0,0,2.2,2.2c.47.31,3.77-.63,3.77-.63s2.36,1.89,3.93.16,5.34-20,5.66-21.7a41.6,41.6,0,0,0,.94-5.18c0-1.26-1.73-2.83-3.3-3.46s-3.3-.32-3.62.94-1.72.32-2.2,1.89-.47,2.36,0,2.83,3,3.61,3,3.61-2.67,8-2.83,9a10.46,10.46,0,0,1-1.57,2.83l-1.1-1.73-1.26-.31s-2.51-10.69-3-11.32-7.38-.16-7.38-.16,2.67-1.88,2.67-2.35-5.35-2.2-5.35-2.2l.16-1.89s2.2-.79,2.36-1.73a11.87,11.87,0,0,0-.16-2.83l-1.26-1.1s.32-5.82.16-6.45,1.89-.15,1.73-1.41-4.56-2.83-9-.94a5.78,5.78,0,0,0-4.4,1.88c-1.73,2.05-2.2,2.83-2,3.93a26.75,26.75,0,0,1,.15,2.83s-.63-1.73-1.25,0-.48,2.83,0,3.46a3.69,3.69,0,0,0,1.72.94l-.31,2.83s-3.62-.78-3.3,0,3,2.68,3,2.68-8.34-1.73-9.28.15-8.49,16.19-8.49,16.19-1.1-.47-1.73.16-3.77,5-3.14,5.66A4.7,4.7,0,0,0,428.67,340.08Z" style="fill:#263238;stroke:#263238;stroke-linecap:round;stroke-linejoin:round"></path><rect x="419.48" y="299.62" width="74.63" height="49.54" style="fill:none;stroke:#263238;stroke-linecap:round;stroke-linejoin:round"></rect><polyline points="421.9 316.29 442.67 309.58 422.33 310.66" style="fill:none;stroke:#263238;stroke-linecap:round;stroke-linejoin:round"></polyline><polyline points="422.12 306.12 441.59 307.2 428.18 302.44" style="fill:none;stroke:#263238;stroke-linecap:round;stroke-linejoin:round"></polyline><polyline points="479.66 302.66 467.11 307.85 487.88 304.18" style="fill:none;stroke:#263238;stroke-linecap:round;stroke-linejoin:round"></polyline><polyline points="490.25 310.66 469.27 312.61 491.99 316.07" style="fill:none;stroke:#263238;stroke-linecap:round;stroke-linejoin:round"></polyline><line x1="483.55" y1="353.56" x2="491.54" y2="353.56" style="fill:none;stroke:#263238;stroke-linecap:round;stroke-linejoin:round"></line><line x1="441.34" y1="353.56" x2="480.49" y2="353.56" style="fill:none;stroke:#263238;stroke-linecap:round;stroke-linejoin:round"></line><line x1="419.8" y1="353.56" x2="439" y2="353.56" style="fill:none;stroke:#263238;stroke-linecap:round;stroke-linejoin:round"></line><line x1="473.63" y1="357.44" x2="491.54" y2="357.44" style="fill:none;stroke:#263238;stroke-linecap:round;stroke-linejoin:round"></line><line x1="454.69" y1="357.44" x2="471.47" y2="357.44" style="fill:none;stroke:#263238;stroke-linecap:round;stroke-linejoin:round"></line><line x1="430.34" y1="357.44" x2="452.35" y2="357.44" style="fill:none;stroke:#263238;stroke-linecap:round;stroke-linejoin:round"></line><line x1="419.8" y1="357.44" x2="428.72" y2="357.44" style="fill:none;stroke:#263238;stroke-linecap:round;stroke-linejoin:round"></line><line x1="479.76" y1="361.31" x2="491.54" y2="361.31" style="fill:none;stroke:#263238;stroke-linecap:round;stroke-linejoin:round"></line><line x1="436.29" y1="361.31" x2="476.52" y2="361.31" style="fill:none;stroke:#263238;stroke-linecap:round;stroke-linejoin:round"></line><line x1="419.8" y1="361.31" x2="433.95" y2="361.31" style="fill:none;stroke:#263238;stroke-linecap:round;stroke-linejoin:round"></line><circle cx="423.43" cy="302.48" r="8.05" style="fill:#fff;stroke:#263238;stroke-linecap:round;stroke-linejoin:round"></circle><path d="M423.54,307.48a2.75,2.75,0,0,1-1.55-.36,1.81,1.81,0,0,1-.71-1,5.71,5.71,0,0,1-.18-1.52H423a5.14,5.14,0,0,0,.06.87.83.83,0,0,0,.22.48.6.6,0,0,0,.44.13.49.49,0,0,0,.43-.24,1.8,1.8,0,0,0,.15-.67c0-.29,0-.63,0-1a6.56,6.56,0,0,0,0-.82,1.24,1.24,0,0,0-.21-.57.55.55,0,0,0-.47-.22.59.59,0,0,0-.47.21,1.36,1.36,0,0,0-.26.65h-1.67l.18-5.39h4.36v1.62h-2.82l-.1,1.92a.9.9,0,0,1,.44-.28,2.9,2.9,0,0,1,.69-.16,1.78,1.78,0,0,1,1.21.26,2.12,2.12,0,0,1,.74,1,5.17,5.17,0,0,1,.24,1.69,9.79,9.79,0,0,1-.09,1.38,3,3,0,0,1-.36,1.09,1.77,1.77,0,0,1-.77.71A3,3,0,0,1,423.54,307.48Z" style="fill:#263238"></path><circle cx="456.41" cy="290.99" r="3.16" style="fill:#A155B5;stroke:#263238;stroke-linecap:round;stroke-linejoin:round"></circle><circle cx="458.08" cy="289.77" r="3.16" style="fill:#A155B5;stroke:#263238;stroke-linecap:round;stroke-linejoin:round"></circle><line x1="453.7" y1="293.38" x2="452.63" y2="294.3" style="fill:none;stroke:#263238;stroke-linecap:round;stroke-linejoin:round"></line></g><g id="freepik--Plant--inject-30"><path d="M607.3,411.9c.06,1.43.17,2.86.26,4.28.22,2.85.39,19.29.65,22.13,0,.48.11.95.16,1.43h2c0-.52,0-1,0-1.55,0-2.84-.06-19.26-.09-22.1l-.08-4.25.08-4.25,0-8.5.23-8.5.08-4.25c.06-1.41.16-2.82.24-4.24l.52-8.49a303.71,303.71,0,0,1,4.81-33.68,197.37,197.37,0,0,1,9.2-32.77h0a.15.15,0,0,0-.27-.11,197.48,197.48,0,0,0-10.39,32.57,303.3,303.3,0,0,0-5.74,33.77l-.81,8.53c-.12,1.43-.28,2.85-.38,4.27l-.23,4.29c-.13,2.85-.3,5.71-.38,8.57l.07,8.57Z" style="fill:#263238"></path><path d="M617.34,439.74c.22-2.8.42-19.18.61-22,.53-7.42.6-14.86,1.09-22.29a195.76,195.76,0,0,1,2.65-22.09,200.21,200.21,0,0,1,4.86-21.78.15.15,0,0,0-.1-.19.15.15,0,0,0-.19.09,197.62,197.62,0,0,0-9.62,43.77c-.75,7.44-1.58,14.88-1.69,22.36,0,2.84,0,19.26,0,22.1Z" style="fill:#263238"></path><path d="M623.3,439.74l.28-16.9c.75-7.16,1.21-14.37,2.75-21.36.19-.87.45-1.73.67-2.59a22,22,0,0,1,.76-2.55l.88-2.51,1.13-2.36a64.82,64.82,0,0,1,5.9-9,74.59,74.59,0,0,1,15.47-15.05h0a.15.15,0,0,0,0-.2.16.16,0,0,0-.21-.05,75.2,75.2,0,0,0-16.47,14.37,65.82,65.82,0,0,0-6.45,8.95l-1.32,2.5-1,2.6a24.71,24.71,0,0,0-.9,2.63c-.27.88-.56,1.77-.8,2.66a105.73,105.73,0,0,0-3.41,21.73c-.05,1.17-.08,15.93-.1,17.11Z" style="fill:#263238"></path><path d="M628.54,439.74c.23-1.61.43-16.8.56-18.43.26-1.87.4-3.79.81-5.65a51.39,51.39,0,0,1,3.22-10.93c1.46-3.48,3.36-6.94,6.29-9.39l0,0a.15.15,0,0,0,0-.2.15.15,0,0,0-.21,0c-3.36,2.17-5.6,5.57-7.49,9a53.43,53.43,0,0,0-4.2,11c-.29.94-.52,1.9-.73,2.86l-.68,2.88c-.31,1.75-.55,17.11-.67,18.88Z" style="fill:#263238"></path><path d="M598.43,388.46c1.18,9.54,2.09,19.11,3.29,28.64l1.11,22.64h2.54c-.18-3.13-.43-19.83-.66-23-.81-9.62-2.4-19.14-3.9-28.66s-3.16-19-4.9-28.48-3.69-18.91-5.73-28.32a.15.15,0,0,0-.17-.12.16.16,0,0,0-.13.18c1.65,9.48,3.14,19,4.55,28.51S597.23,378.92,598.43,388.46Z" style="fill:#263238"></path><path d="M574.58,352.88a42.56,42.56,0,0,1,6.35,9.42c.83,1.71,1.72,3.39,2.43,5.16l1.13,2.61,1,2.68a155.36,155.36,0,0,1,6.41,21.88c.88,3.7,1.46,7.47,2.18,11.2l.9,5.64c.33,1.87.73,3.74,1,5.62.48,3,1,19.63,1.56,22.65h2.35c-.25-3.17-.61-19.93-.94-23.1-.51-3.81-1.21-7.59-1.94-11.37l-1.35-5.62c-.44-1.87-.86-3.74-1.41-5.59a159.3,159.3,0,0,0-7.35-21.88l-1.16-2.64L584.45,367c-.81-1.75-1.8-3.41-2.74-5.09a42.6,42.6,0,0,0-6.94-9.2.13.13,0,0,0-.2,0,.15.15,0,0,0,0,.21Z" style="fill:#263238"></path><path d="M583.51,402.9c2,4.92,3.71,9.91,5.19,15,.81,2.74,1.5,19.09,2.17,21.86H594c-.9-3-2-19.62-3-22.61-1.78-5-3.84-10-6.09-14.83a135.18,135.18,0,0,0-7.66-14,.16.16,0,0,0-.21-.05.15.15,0,0,0,0,.2A133.52,133.52,0,0,1,583.51,402.9Z" style="fill:#263238"></path><path d="M571.8,412.73a22.12,22.12,0,0,1,7.38,5.73c2.06,2.3,3.71,18.53,5.09,21.28h2.8l-.65-1.09c-1.74-2.79-3.75-19-6.17-21.24a27.41,27.41,0,0,0-3.92-3,16.26,16.26,0,0,0-4.45-2,.15.15,0,0,0-.17.09.14.14,0,0,0,.08.19Z" style="fill:#263238"></path><path d="M591.24,345.09s-15.76-3.64-19.4-20.61,8.09-9.7-2.42-36.38-8.08-32.73-4.45-40.41,5.66-5.25,8.9,4.85,15,25.87,19.4,55.37S591.24,345.09,591.24,345.09Z" style="fill:#A155B5"></path><path d="M622.36,316.4s-10.5-3.64-10.91-23.45,7.68-15.76,8.89-40.41,2.83-42,7.28-42.44,16.16,12.13,20.21,39.61-5.26,45.67-13.34,53.75S622.36,316.4,622.36,316.4Z" style="fill:#A155B5"></path><path d="M585.59,368.94s-2.43-14.55-7.28-21.42S563,334.58,556.08,321.25s-14.55-19.81-14.14-.81,8.89,28.69,19.4,35.16S585.59,368.94,585.59,368.94Z" style="fill:#A155B5"></path><path d="M581.14,394s-9.7-18.59-23.84-32.33-25.47-20.61-21.43-13.74,8.9,6.47,15.77,18.59,4.85,21,14.55,27.89S581.14,394,581.14,394Z" style="fill:#A155B5"></path><path d="M579.93,417.84c-.41-1.21-.81-10.1-14.55-17.38s-26.68-4.44-25.06-.81,10.1,9.7,18.59,13.34S579.93,417.84,579.93,417.84Z" style="fill:#A155B5"></path><path d="M621.56,369.75s-6.07-7.68-2.83-23.85,10.51-12.13,18.59-20.61,6.46-9.7,14.55-18.59,15.36-13.75,18.59-10.11-1.62,15-6.47,21.42-12.53,9.7-16.16,17.79-2,21-11.32,27.07S621.56,369.75,621.56,369.75Z" style="fill:#A155B5"></path><path d="M641.76,374.19s14.55-16.57,25.06-28.69,14.55-21.42,15-13.34,3.63,14.55-4.85,25.06S641.76,374.19,641.76,374.19Z" style="fill:#A155B5"></path><path d="M634.09,400.87s-.41-6.47,22.63-21.43,32.73-17.78,30.31-11.72-12.53,12.13-23.44,23S634.09,400.87,634.09,400.87Z" style="fill:#A155B5"></path><path d="M592.21,343.37s-5.41-29-11.07-49.61-9.3-33.14-9.3-33.14" style="fill:none;stroke:#263238;stroke-linecap:round;stroke-linejoin:round"></path><path d="M621.43,316.7s9.83-31.42,13.06-50.42-.4-33.14-2-41.63" style="fill:none;stroke:#263238;stroke-linecap:round;stroke-linejoin:round"></path><path d="M584.31,368.33a152.51,152.51,0,0,0-14.89-21.22c-8.89-10.51-15.76-16.16-19.8-26.27" style="fill:none;stroke:#263238;stroke-linecap:round;stroke-linejoin:round"></path><path d="M621.56,369.75s3.23-19.4,10.91-29.51,23-25.86,29.1-36" style="fill:none;stroke:#263238;stroke-linecap:round;stroke-linejoin:round"></path><path d="M579,417.4s-13.6-8.86-23.3-13.71" style="fill:none;stroke:#263238;stroke-linecap:round;stroke-linejoin:round"></path></g><g id="freepik--Character--inject-30"><path d="M301.52,290.54s6.11-8.88,6.39-10.54.28-8.89,1.94-13.33,5-7.22,5.83-11.66,1.67-5.83,3.89-3.06,1.39,10.83.55,12.5,10.83-8.89,14.72-11.94,13.6-8.88,14.71-6.39-1.94,4.72-3.88,6.11-9.16,7.5-9.16,7.5l-.84,1.94a101,101,0,0,0,10.55-6.94,26,26,0,0,1,11.66-5c2.78-.27,4.17,2.5-.28,5.83s-11.1,7.5-12.49,8.61-6.94,5.83-6.94,5.83,10.55-3.61,14.44-5.83,7.22-3.89,8.33-1.94-.84,3.33-4.72,5.27-13.61,7.5-13.61,7.5,10-1.39,13.05-1.95,5.83,1.95,2.5,4.17-14.44,4.44-15.27,5S331.23,291.38,325.4,293a72.07,72.07,0,0,0-8.33,2.78s-4.44,5-5.27,5.83S301.52,290.54,301.52,290.54Z" style="fill:#b8b8b8;stroke:#263238;stroke-linecap:round;stroke-linejoin:round"></path><path d="M320.12,264.45l1.39,6.66s2.5,5.28.56,8.61a21,21,0,0,1-3.89,5" style="fill:none;stroke:#263238;stroke-linecap:round;stroke-linejoin:round"></path><line x1="334.01" y1="265.84" x2="341.5" y2="275.83" style="fill:none;stroke:#263238;stroke-linecap:round;stroke-linejoin:round"></line><path d="M291.81,298.87s9.16-10,10.27-10.82,12.21,12.21,12.77,13.6-9.72,11.94-9.72,11.94S293.47,304.43,291.81,298.87Z" style="fill:#fff;stroke:#263238;stroke-linecap:round;stroke-linejoin:round"></path><path d="M228.51,271.39s11.1,17.21,13.32,25.54,8.61,32.48,8.61,32.48,14.44-10.82,20.82-16.38,17.22-14.71,19.71-17.77,6.94,5.28,10.55,8.61,11.66,7.22,8.33,14.44-25.24,41.52-41.62,53.45-18.07,12.35-24.45,13.73-12.22,1.67-20.83-8.88-10.27-58.86-13.88-84.4,4.72-25.54,8.33-24.71A106.64,106.64,0,0,1,228.51,271.39Z" style="fill:#A155B5;stroke:#263238;stroke-linecap:round;stroke-linejoin:round"></path><path d="M228.94,365.18s7.48,19.45,14.84,20.31c0,0-12.12,2.3-16.38-6.1Z" style="fill:#263238;stroke:#263238;stroke-linecap:round;stroke-linejoin:round"></path><path d="M232.67,322.19c-.28,17.5-5.27,49.42-5.27,57.2s-2,60.24-2,60.24H107.07s1-27.48-.62-44.7-2.32-123.82-.1-129.37,46.36-22.49,46.36-22.49,25.55.83,37.76,4.16,21.93,11.67,26.93,15.55,14.72,8.89,16.66,18.05" style="fill:#A155B5;stroke:#263238;stroke-linecap:round;stroke-linejoin:round"></path><path d="M181.63,426.14a65.83,65.83,0,0,1-6.8,3.62" style="fill:none;stroke:#263238;stroke-linecap:round;stroke-linejoin:round"></path><path d="M223.22,386.22S207,408,187.86,422" style="fill:none;stroke:#263238;stroke-linecap:round;stroke-linejoin:round"></path><path d="M204.3,415.69s-18.47,14.07-28.15,18.91" style="fill:none;stroke:#263238;stroke-linecap:round;stroke-linejoin:round"></path><path d="M148.27,243.35a152.43,152.43,0,0,0,5.83,26.37c4.44,13.88,6.94,20,6.94,20s10.28-11.1,13.33-13,4.72-3.05,4.72-3.05l12.77-1.67s5.83,3.06,9.16,4.45,8.61,5.83,10.55,3.61-2.5-6.11-6.11-18.88-8.88-17.22-15.27-25.55-19.43-9.71-22.76-7.49S153,234.74,148.27,243.35Z" style="fill:#fff;stroke:#263238;stroke-linecap:round;stroke-linejoin:round"></path><path d="M167.85,200.18s-4.95-16,1.1-29.71,22.28-23.38,43.18-21.73,33.56,16.51,34.93,29.71-.82,19-1.92,22.28-7.71,13.2-7.71,19-1.1,11.82-4.67,16.5-9.63,13.2-13.75,15.68a21.62,21.62,0,0,1-12.11,2.47l-2.47-.27s-5.78,5.77-7.15,8.8-6.6,22.28-7.43,25-10.45-12.38-12.38-17.05-8.25-20.08-9.9-27.51-2.2-10.18-2.2-10.18,6.33-17.05,6.6-22.82S167.85,200.18,167.85,200.18Z" style="fill:#b8b8b8;stroke:#263238;stroke-linecap:round;stroke-linejoin:round"></path><path d="M211.49,201.93c-.26,1.83-1.5,3.16-2.76,3s-2.07-1.81-1.8-3.64,1.49-3.16,2.75-3S211.75,200.1,211.49,201.93Z" style="fill:#263238"></path><path d="M234.41,210.36c-.26,1.83-1.5,3.16-2.76,3s-2.06-1.81-1.8-3.64,1.49-3.16,2.75-3S234.67,208.53,234.41,210.36Z" style="fill:#263238"></path><path d="M226.28,221.61s-.16,6.73-5.62,4.7" style="fill:none;stroke:#263238;stroke-linecap:round;stroke-linejoin:round"></path><path d="M217.63,224.11s.28-.55-1.93-.28-3-1.92-.82-4.67" style="fill:none;stroke:#263238;stroke-linecap:round;stroke-linejoin:round"></path><path d="M206.25,228.51s7.38,6.56,15.1,6.07" style="fill:none;stroke:#263238;stroke-linecap:round;stroke-linejoin:round"></path><path d="M231.37,203.55s-6.73,3.44-6.57,10.34" style="fill:none;stroke:#263238;stroke-linecap:round;stroke-linejoin:round"></path><path d="M220.7,193.86s-5.92-6.08-12.81-4.77" style="fill:none;stroke:#263238;stroke-linecap:round;stroke-linejoin:round"></path><path d="M235.64,201.58s5.58-.5,6.9,2.95" style="fill:none;stroke:#263238;stroke-linecap:round;stroke-linejoin:round"></path><ellipse cx="209.69" cy="202.97" rx="12.64" ry="12.4" style="fill:none;stroke:#263238;stroke-linecap:round;stroke-linejoin:round"></ellipse><ellipse cx="236.98" cy="214.19" rx="11.36" ry="11.14" style="fill:none;stroke:#263238;stroke-linecap:round;stroke-linejoin:round"></ellipse><line x1="199.84" y1="195.17" x2="178.49" y2="190.9" style="fill:none;stroke:#263238;stroke-linecap:round;stroke-linejoin:round"></line><path d="M222.34,203s5.3-.33,6.4,3.2" style="fill:none;stroke:#263238;stroke-linecap:round;stroke-linejoin:round"></path><line x1="248.28" y1="216.35" x2="239.09" y2="213.23" style="fill:none;stroke:#263238;stroke-linecap:round;stroke-linejoin:round"></line><path d="M207.72,162.66c18.77-5.75,31.25,3.14,39.4,16.4l-.06-.61c-1.37-13.2-14-28-34.93-29.71s-37.13,8-43.18,21.73-1.1,29.71-1.1,29.71a16.37,16.37,0,0,1,3.76,6.76c3.21-1.51,6.09-4.78,6.88-12.75,0,0,6.74,1.8,7.89-.17s.16-.49,3.12-6.57,10.18-4.92,11.65-9.69S187.36,168.9,207.72,162.66Z" style="fill:#263238;stroke:#263238;stroke-linecap:round;stroke-linejoin:round"></path><path d="M182.15,196.6s-2.75-10.17-9.35-6.87-7.43,10.72-4.4,17.88,6,11,10.45,8.8" style="fill:#b8b8b8;stroke:#263238;stroke-linecap:round;stroke-linejoin:round"></path><path d="M204.43,254.09s-4.79-.08-9.73-5.84a79.82,79.82,0,0,1-8.86-13.4s-.62,15,2.47,22.46,8,7.58,8,7.58l1-2Z" style="fill:#263238;stroke:#263238;stroke-linecap:round;stroke-linejoin:round"></path><path d="M171.87,324.14l13.33-12.77s11.1-18.6,12.49-21.1,6.94-9.72,8.33-14.72,3.61-3.88,4.44-.83-.28,7.77-.28,7.77,8.33-5.55,12.5-8.05,10.82-2.5,12.77-2.5,4.16.84,3.33,2.22-5.55,1.12-8.05,2.78-7.22,3.33-8.89,4.44-7.21,6.67-7.21,6.67,14.43-6.94,16.38-7.78,9.16-1.66,13-1.94,3.34,3.05.84,4.16-9.44,3.61-11.39,3.89S221,294.71,221,294.71s11.66-3.33,13.88-3.61,11.39-1.39,12.5,0,1.11,3.33-2.5,4.44-10.83,2.5-10.83,2.5l-10.27,4.17h10.27c3.05,0,10-1.12,10.27,1.11s-.55,2.77-2.5,3.33-19.15,3.05-20.26,3.33-7.78,10.83-15.55,15.55a76.28,76.28,0,0,1-16.66,7.21l-10.27,7.5S175.48,326.08,171.87,324.14Z" style="fill:#b8b8b8;stroke:#263238;stroke-linecap:round;stroke-linejoin:round"></path><path d="M210.18,282.49s-7.77,5.56-11.66,10" style="fill:none;stroke:#263238;stroke-linecap:round;stroke-linejoin:round"></path><path d="M159.33,328.37,172.21,321s2.28.2,4.81,3.74,4.71,11.9,5.19,14.91-10.43,8.69-10.43,8.69S166.86,335.05,159.33,328.37Z" style="fill:#fff;stroke:#263238;stroke-linecap:round;stroke-linejoin:round"></path><path d="M129.39,254.45s-30.81,9.72-33.31,14.16-4.44,43.59-5.56,71.91S89.69,378.28,93,383s15.27,14.15,25,10,27.49-20.54,36.09-26.65,19.16-14.44,19.44-20.55-3.61-13.32-6.11-16.65-5.83-5.56-10-4.72-27.2,11.66-27.2,11.66L130,296.65" style="fill:#A155B5;stroke:#263238;stroke-linecap:round;stroke-linejoin:round"></path><line x1="109.97" y1="345.3" x2="105.24" y2="347.46" style="fill:none;stroke:#263238;stroke-linecap:round;stroke-linejoin:round"></line><line x1="130.23" y1="336.08" x2="113.55" y2="343.67" style="fill:none;stroke:#263238;stroke-linecap:round;stroke-linejoin:round"></line><path d="M247.37,338.58a34.94,34.94,0,0,0-1.09,5.27" style="fill:none;stroke:#263238;stroke-linecap:round;stroke-linejoin:round"></path><path d="M250.44,329.41s-1,2.52-2,5.68" style="fill:none;stroke:#263238;stroke-linecap:round;stroke-linejoin:round"></path></g><g id="freepik--Table--inject-30"><line x1="52.08" y1="439.63" x2="699.21" y2="439.63" style="fill:none;stroke:#263238;stroke-miterlimit:10"></line></g></svg>