<?xml version="1.0" encoding="UTF-8"?>
<svg xmlns="http://www.w3.org/2000/svg" xmlns:xlink="http://www.w3.org/1999/xlink" viewBox="0 0 480 480" width="480px" height="480px">
<g id="surface139569860">
<path style=" stroke:none;fill-rule:nonzero;fill:rgb(100%,100%,100%);fill-opacity:1;" d="M 393.601562 38.398438 L 86.398438 38.398438 C 59.902344 38.398438 38.398438 59.902344 38.398438 86.398438 L 38.398438 393.601562 C 38.398438 420.097656 59.902344 441.601562 86.398438 441.601562 L 393.601562 441.601562 C 420.097656 441.601562 441.601562 420.097656 441.601562 393.601562 L 441.601562 86.398438 C 441.601562 59.902344 420.097656 38.398438 393.601562 38.398438 Z M 355.199219 182.398438 L 336 182.398438 C 315.457031 182.398438 307.199219 187.199219 307.199219 201.601562 L 307.199219 230.398438 L 355.199219 230.398438 L 345.601562 278.398438 L 307.199219 278.398438 L 307.199219 422.398438 L 259.199219 422.398438 L 259.199219 278.398438 L 220.800781 278.398438 L 220.800781 230.398438 L 259.199219 230.398438 L 259.199219 201.601562 C 259.199219 163.199219 278.398438 134.398438 316.800781 134.398438 C 344.640625 134.398438 355.199219 144 355.199219 144 Z M 355.199219 182.398438 "/>
</g>
</svg>
