<svg fill="#000000" xmlns="http://www.w3.org/2000/svg"  viewBox="0 0 50 50" width="480px" height="480px"><path d="M41,4H9C6.24,4,4,6.24,4,9v32c0,2.76,2.24,5,5,5h32c2.76,0,5-2.24,5-5V9C46,6.24,43.76,4,41,4z M29,18h7v2h-7V18z M19.02,32H12V18h6.73c0.73,0,4.68-0.05,4.68,3.57c0,1.92-1.31,2.57-1.9,2.86C22.39,24.71,24,25.52,24,28C24,31.83,19.61,32,19.02,32z M32.89,29.83c0.62,0,1.08-0.15,1.55-0.44c0.46-0.29,0.62-0.57,0.77-0.86h2.63c-0.46,1.15-1.08,2.02-2.01,2.6S33.82,32,32.58,32c-0.78,0-1.55-0.15-2.33-0.44c-0.62-0.29-1.24-0.72-1.7-1.15c-0.46-0.44-0.77-1.02-1.08-1.74C27.16,28.09,27,27.22,27,26.5s0.29-5.5,5.73-5.5c3.9,0,4.96,3.04,5.12,3.76C38,25.49,38,26.13,38,27h-7.9C30.1,27.87,30.56,29.83,32.89,29.83z"/><path d="M20.68 27.71c0 1.77-2.039 1.86-2.328 1.86H15v-3.86h3.352C19.078 25.71 20.68 25.95 20.68 27.71zM20.12 22c0 1.47-1.46 1.71-1.9 1.71H15v-3.28h2.93C18.22 20.43 20.12 20.53 20.12 22zM35.06 25.34H30.1c0-.14.37-2.31 2.63-2.31C34.25 23.03 34.9 24.62 35.06 25.34z"/></svg>